<?xml version="1.0" encoding="UTF-8" standalone="no"?>
<!DOCTYPE svg PUBLIC "-//W3C//DTD SVG 1.1//EN"
 "http://www.w3.org/Graphics/SVG/1.1/DTD/svg11.dtd">
<!-- Generated by graphviz version 2.40.1 (20161225.0304)
 -->
<!-- Title: dependencies Pages: 1 -->
<svg width="3127pt" height="284pt"
 viewBox="0.00 0.00 3127.00 284.00" xmlns="http://www.w3.org/2000/svg" xmlns:xlink="http://www.w3.org/1999/xlink">
<g id="graph0" class="graph" transform="scale(1 1) rotate(0) translate(4 280)">
<title>dependencies</title>
<polygon fill="#ffffff" stroke="transparent" points="-4,4 -4,-280 3123,-280 3123,4 -4,4"/>
<text text-anchor="start" x="1538.5091" y="-42.4" font-family="sans-serif" font-weight="bold" font-size="14.00" fill="#000000">Legend</text>
<polygon fill="#ffffb3" stroke="transparent" points="1325.5,-10 1325.5,-30 1345.5,-30 1345.5,-10 1325.5,-10"/>
<text text-anchor="start" x="1349.129" y="-15.4" font-family="sans-serif" font-size="14.00" fill="#000000"> &#160;Declarations</text>
<polygon fill="#8dd3c7" stroke="transparent" points="1438.5,-10 1438.5,-30 1458.5,-30 1458.5,-10 1438.5,-10"/>
<text text-anchor="start" x="1462.2251" y="-15.4" font-family="sans-serif" font-size="14.00" fill="#000000"> &#160;Module</text>
<polygon fill="#80b1d3" stroke="transparent" points="1524.5,-10 1524.5,-30 1544.5,-30 1544.5,-10 1524.5,-10"/>
<text text-anchor="start" x="1548.2812" y="-15.4" font-family="sans-serif" font-size="14.00" fill="#000000"> &#160;Bootstrap</text>
<polygon fill="#fdb462" stroke="transparent" points="1621.5,-10 1621.5,-30 1641.5,-30 1641.5,-10 1621.5,-10"/>
<text text-anchor="start" x="1645.1732" y="-15.4" font-family="sans-serif" font-size="14.00" fill="#000000"> &#160;Providers</text>
<polygon fill="#fb8072" stroke="transparent" points="1717.5,-10 1717.5,-30 1737.5,-30 1737.5,-10 1717.5,-10"/>
<text text-anchor="start" x="1741.2258" y="-15.4" font-family="sans-serif" font-size="14.00" fill="#000000"> &#160;Exports</text>
<g id="clust1" class="cluster">
<title>cluster_SharedModule</title>
<polygon fill="none" stroke="#000000" stroke-dasharray="1,5" points="8,-70 8,-268 3111,-268 3111,-70 8,-70"/>
</g>
<g id="clust2" class="cluster">
<title>cluster_SharedModule_declarations</title>
<polygon fill="none" stroke="#000000" points="144,-78 144,-130 3103,-130 3103,-78 144,-78"/>
</g>
<g id="clust19" class="cluster">
<title>cluster_SharedModule_imports</title>
<polygon fill="none" stroke="#000000" points="16,-78 16,-130 136,-130 136,-78 16,-78"/>
</g>
<g id="clust20" class="cluster">
<title>cluster_SharedModule_exports</title>
<polygon fill="none" stroke="#000000" points="1213,-208 1213,-260 1761,-260 1761,-208 1213,-208"/>
</g>
<!-- ActionListenerDirective -->
<g id="node1" class="node">
<title>ActionListenerDirective</title>
<polygon fill="#ffffb3" stroke="#000000" points="3095.0534,-122 2942.9466,-122 2942.9466,-86 3095.0534,-86 3095.0534,-122"/>
<text text-anchor="middle" x="3019" y="-99.8" font-family="Times,serif" font-size="14.00" fill="#000000">ActionListenerDirective</text>
</g>
<!-- SharedModule -->
<g id="node17" class="node">
<title>SharedModule</title>
<polygon fill="#8dd3c7" stroke="#000000" points="1527.4231,-187 1524.4231,-191 1503.4231,-191 1500.4231,-187 1428.5769,-187 1428.5769,-151 1527.4231,-151 1527.4231,-187"/>
<text text-anchor="middle" x="1478" y="-164.8" font-family="Times,serif" font-size="14.00" fill="#000000">SharedModule</text>
</g>
<!-- ActionListenerDirective&#45;&gt;SharedModule -->
<g id="edge1" class="edge">
<title>ActionListenerDirective&#45;&gt;SharedModule</title>
<path fill="none" stroke="#000000" d="M3019,-122.0109C3019,-144.4852 3019,-180 3019,-180 3019,-180 1537.5265,-180 1537.5265,-180"/>
<polygon fill="#000000" stroke="#000000" points="1537.5265,-176.5001 1527.5265,-180 1537.5265,-183.5001 1537.5265,-176.5001"/>
</g>
<!-- AddAuditDialogComponent -->
<g id="node2" class="node">
<title>AddAuditDialogComponent</title>
<polygon fill="#ffffb3" stroke="#000000" points="2924.9297,-122 2749.0703,-122 2749.0703,-86 2924.9297,-86 2924.9297,-122"/>
<text text-anchor="middle" x="2837" y="-99.8" font-family="Times,serif" font-size="14.00" fill="#000000">AddAuditDialogComponent</text>
</g>
<!-- AddAuditDialogComponent&#45;&gt;SharedModule -->
<g id="edge2" class="edge">
<title>AddAuditDialogComponent&#45;&gt;SharedModule</title>
<path fill="none" stroke="#000000" d="M2837,-122.0449C2837,-143.6623 2837,-177 2837,-177 2837,-177 1537.5741,-177 1537.5741,-177"/>
<polygon fill="#000000" stroke="#000000" points="1537.5741,-173.5001 1527.5741,-177 1537.574,-180.5001 1537.5741,-173.5001"/>
</g>
<!-- AddContactPersonDialogComponent -->
<g id="node3" class="node">
<title>AddContactPersonDialogComponent</title>
<polygon fill="#ffffb3" stroke="#000000" points="2731.6909,-122 2506.3091,-122 2506.3091,-86 2731.6909,-86 2731.6909,-122"/>
<text text-anchor="middle" x="2619" y="-99.8" font-family="Times,serif" font-size="14.00" fill="#000000">AddContactPersonDialogComponent</text>
</g>
<!-- AddContactPersonDialogComponent&#45;&gt;SharedModule -->
<g id="edge3" class="edge">
<title>AddContactPersonDialogComponent&#45;&gt;SharedModule</title>
<path fill="none" stroke="#000000" d="M2619,-122.1289C2619,-142.5724 2619,-173 2619,-173 2619,-173 1537.3936,-173 1537.3936,-173"/>
<polygon fill="#000000" stroke="#000000" points="1537.3936,-169.5001 1527.3936,-173 1537.3935,-176.5001 1537.3936,-169.5001"/>
</g>
<!-- AddInterviewDialogComponent -->
<g id="node4" class="node">
<title>AddInterviewDialogComponent</title>
<polygon fill="#ffffb3" stroke="#000000" points="2488.6797,-122 2291.3203,-122 2291.3203,-86 2488.6797,-86 2488.6797,-122"/>
<text text-anchor="middle" x="2390" y="-99.8" font-family="Times,serif" font-size="14.00" fill="#000000">AddInterviewDialogComponent</text>
</g>
<!-- AddInterviewDialogComponent&#45;&gt;SharedModule -->
<g id="edge4" class="edge">
<title>AddInterviewDialogComponent&#45;&gt;SharedModule</title>
<path fill="none" stroke="#000000" d="M2390,-122.1061C2390,-141.3391 2390,-169 2390,-169 2390,-169 1537.3564,-169 1537.3564,-169"/>
<polygon fill="#000000" stroke="#000000" points="1537.3565,-165.5001 1527.3564,-169 1537.3564,-172.5001 1537.3565,-165.5001"/>
</g>
<!-- AuditFormComponent -->
<g id="node5" class="node">
<title>AuditFormComponent</title>
<polygon fill="#ffffb3" stroke="#000000" points="2273.5547,-122 2130.4453,-122 2130.4453,-86 2273.5547,-86 2273.5547,-122"/>
<text text-anchor="middle" x="2202" y="-99.8" font-family="Times,serif" font-size="14.00" fill="#000000">AuditFormComponent</text>
</g>
<!-- AuditFormComponent&#45;&gt;SharedModule -->
<g id="edge5" class="edge">
<title>AuditFormComponent&#45;&gt;SharedModule</title>
<path fill="none" stroke="#000000" d="M2202,-122.2667C2202,-140.5552 2202,-166 2202,-166 2202,-166 1537.4785,-166 1537.4785,-166"/>
<polygon fill="#000000" stroke="#000000" points="1537.4785,-162.5001 1527.4785,-166 1537.4785,-169.5001 1537.4785,-162.5001"/>
</g>
<!-- ConfirmDiscardDialogComponent -->
<g id="node6" class="node">
<title>ConfirmDiscardDialogComponent</title>
<polygon fill="#ffffb3" stroke="#000000" points="2112.4058,-122 1901.5942,-122 1901.5942,-86 2112.4058,-86 2112.4058,-122"/>
<text text-anchor="middle" x="2007" y="-99.8" font-family="Times,serif" font-size="14.00" fill="#000000">ConfirmDiscardDialogComponent</text>
</g>
<!-- ConfirmDiscardDialogComponent&#45;&gt;SharedModule -->
<g id="edge6" class="edge">
<title>ConfirmDiscardDialogComponent&#45;&gt;SharedModule</title>
<path fill="none" stroke="#000000" d="M2007,-122.0336C2007,-139.0597 2007,-162 2007,-162 2007,-162 1537.292,-162 1537.292,-162"/>
<polygon fill="#000000" stroke="#000000" points="1537.292,-158.5001 1527.292,-162 1537.292,-165.5001 1537.292,-158.5001"/>
</g>
<!-- ContactPersonFormComponent -->
<g id="node7" class="node">
<title>ContactPersonFormComponent</title>
<polygon fill="#ffffb3" stroke="#000000" points="1883.8159,-122 1690.1841,-122 1690.1841,-86 1883.8159,-86 1883.8159,-122"/>
<text text-anchor="middle" x="1787" y="-99.8" font-family="Times,serif" font-size="14.00" fill="#000000">ContactPersonFormComponent</text>
</g>
<!-- ContactPersonFormComponent&#45;&gt;SharedModule -->
<g id="edge7" class="edge">
<title>ContactPersonFormComponent&#45;&gt;SharedModule</title>
<path fill="none" stroke="#000000" d="M1721.5595,-122.0091C1721.5595,-138.0494 1721.5595,-159 1721.5595,-159 1721.5595,-159 1537.2879,-159 1537.2879,-159"/>
<polygon fill="#000000" stroke="#000000" points="1537.2879,-155.5001 1527.2879,-159 1537.2879,-162.5001 1537.2879,-155.5001"/>
</g>
<!-- CriteriasPipe -->
<g id="node8" class="node">
<title>CriteriasPipe</title>
<polygon fill="#ffffb3" stroke="#000000" points="1672.5912,-122 1583.4088,-122 1583.4088,-86 1672.5912,-86 1672.5912,-122"/>
<text text-anchor="middle" x="1628" y="-99.8" font-family="Times,serif" font-size="14.00" fill="#000000">CriteriasPipe</text>
</g>
<!-- CriteriasPipe&#45;&gt;SharedModule -->
<g id="edge8" class="edge">
<title>CriteriasPipe&#45;&gt;SharedModule</title>
<path fill="none" stroke="#000000" d="M1590.3389,-122.1243C1590.3389,-136.7832 1590.3389,-155 1590.3389,-155 1590.3389,-155 1537.2735,-155 1537.2735,-155"/>
<polygon fill="#000000" stroke="#000000" points="1537.2735,-151.5001 1527.2735,-155 1537.2734,-158.5001 1537.2735,-151.5001"/>
</g>
<!-- EditAuditDialogComponent -->
<g id="node9" class="node">
<title>EditAuditDialogComponent</title>
<polygon fill="#ffffb3" stroke="#000000" points="1565.1567,-122 1390.8433,-122 1390.8433,-86 1565.1567,-86 1565.1567,-122"/>
<text text-anchor="middle" x="1478" y="-99.8" font-family="Times,serif" font-size="14.00" fill="#000000">EditAuditDialogComponent</text>
</g>
<!-- EditAuditDialogComponent&#45;&gt;SharedModule -->
<g id="edge9" class="edge">
<title>EditAuditDialogComponent&#45;&gt;SharedModule</title>
<path fill="none" stroke="#000000" d="M1478,-122.1061C1478,-122.1061 1478,-140.991 1478,-140.991"/>
<polygon fill="#000000" stroke="#000000" points="1474.5001,-140.9909 1478,-150.991 1481.5001,-140.991 1474.5001,-140.9909"/>
</g>
<!-- EditContactPersonDialogComponent -->
<g id="node10" class="node">
<title>EditContactPersonDialogComponent</title>
<polygon fill="#ffffb3" stroke="#000000" points="1372.4184,-122 1147.5816,-122 1147.5816,-86 1372.4184,-86 1372.4184,-122"/>
<text text-anchor="middle" x="1260" y="-99.8" font-family="Times,serif" font-size="14.00" fill="#000000">EditContactPersonDialogComponent</text>
</g>
<!-- EditContactPersonDialogComponent&#45;&gt;SharedModule -->
<g id="edge10" class="edge">
<title>EditContactPersonDialogComponent&#45;&gt;SharedModule</title>
<path fill="none" stroke="#000000" d="M1357.8647,-122.1243C1357.8647,-136.7832 1357.8647,-155 1357.8647,-155 1357.8647,-155 1418.4428,-155 1418.4428,-155"/>
<polygon fill="#000000" stroke="#000000" points="1418.4428,-158.5001 1428.4428,-155 1418.4427,-151.5001 1418.4428,-158.5001"/>
</g>
<!-- FactorsPipe -->
<g id="node11" class="node">
<title>FactorsPipe</title>
<polygon fill="#ffffb3" stroke="#000000" points="1130.0955,-122 1047.9045,-122 1047.9045,-86 1130.0955,-86 1130.0955,-122"/>
<text text-anchor="middle" x="1089" y="-99.8" font-family="Times,serif" font-size="14.00" fill="#000000">FactorsPipe</text>
</g>
<!-- FactorsPipe&#45;&gt;SharedModule -->
<g id="edge11" class="edge">
<title>FactorsPipe&#45;&gt;SharedModule</title>
<path fill="none" stroke="#000000" d="M1089,-122.0091C1089,-138.0494 1089,-159 1089,-159 1089,-159 1418.7329,-159 1418.7329,-159"/>
<polygon fill="#000000" stroke="#000000" points="1418.7329,-162.5001 1428.7329,-159 1418.7328,-155.5001 1418.7329,-162.5001"/>
</g>
<!-- InterviewFormComponent -->
<g id="node12" class="node">
<title>InterviewFormComponent</title>
<polygon fill="#ffffb3" stroke="#000000" points="1029.8047,-122 864.1953,-122 864.1953,-86 1029.8047,-86 1029.8047,-122"/>
<text text-anchor="middle" x="947" y="-99.8" font-family="Times,serif" font-size="14.00" fill="#000000">InterviewFormComponent</text>
</g>
<!-- InterviewFormComponent&#45;&gt;SharedModule -->
<g id="edge12" class="edge">
<title>InterviewFormComponent&#45;&gt;SharedModule</title>
<path fill="none" stroke="#000000" d="M947,-122.0336C947,-139.0597 947,-162 947,-162 947,-162 1418.5216,-162 1418.5216,-162"/>
<polygon fill="#000000" stroke="#000000" points="1418.5217,-165.5001 1428.5216,-162 1418.5216,-158.5001 1418.5217,-165.5001"/>
</g>
<!-- NotFoundComponent -->
<g id="node13" class="node">
<title>NotFoundComponent</title>
<polygon fill="#ffffb3" stroke="#000000" points="846.1122,-122 707.8878,-122 707.8878,-86 846.1122,-86 846.1122,-122"/>
<text text-anchor="middle" x="777" y="-99.8" font-family="Times,serif" font-size="14.00" fill="#000000">NotFoundComponent</text>
</g>
<!-- NotFoundComponent&#45;&gt;SharedModule -->
<g id="edge13" class="edge">
<title>NotFoundComponent&#45;&gt;SharedModule</title>
<path fill="none" stroke="#000000" d="M777,-122.2667C777,-140.5552 777,-166 777,-166 777,-166 1418.707,-166 1418.707,-166"/>
<polygon fill="#000000" stroke="#000000" points="1418.7071,-169.5001 1428.707,-166 1418.707,-162.5001 1418.7071,-169.5001"/>
</g>
<!-- SidebarComponent -->
<g id="node14" class="node">
<title>SidebarComponent</title>
<polygon fill="#ffffb3" stroke="#000000" points="690.0954,-122 565.9046,-122 565.9046,-86 690.0954,-86 690.0954,-122"/>
<text text-anchor="middle" x="628" y="-99.8" font-family="Times,serif" font-size="14.00" fill="#000000">SidebarComponent</text>
</g>
<!-- SidebarComponent&#45;&gt;SharedModule -->
<g id="edge14" class="edge">
<title>SidebarComponent&#45;&gt;SharedModule</title>
<path fill="none" stroke="#000000" d="M628,-122.1061C628,-141.3391 628,-169 628,-169 628,-169 1418.6264,-169 1418.6264,-169"/>
<polygon fill="#000000" stroke="#000000" points="1418.6264,-172.5001 1428.6264,-169 1418.6264,-165.5001 1418.6264,-172.5001"/>
</g>
<!-- SidebarInterviewComponent -->
<g id="node15" class="node">
<title>SidebarInterviewComponent</title>
<polygon fill="#ffffb3" stroke="#000000" points="547.7338,-122 370.2662,-122 370.2662,-86 547.7338,-86 547.7338,-122"/>
<text text-anchor="middle" x="459" y="-99.8" font-family="Times,serif" font-size="14.00" fill="#000000">SidebarInterviewComponent</text>
</g>
<!-- SidebarInterviewComponent&#45;&gt;SharedModule -->
<g id="edge15" class="edge">
<title>SidebarInterviewComponent&#45;&gt;SharedModule</title>
<path fill="none" stroke="#000000" d="M459,-122.1289C459,-142.5724 459,-173 459,-173 459,-173 1418.5071,-173 1418.5071,-173"/>
<polygon fill="#000000" stroke="#000000" points="1418.5072,-176.5001 1428.5071,-173 1418.5071,-169.5001 1418.5072,-176.5001"/>
</g>
<!-- SidebarInterviewListComponent -->
<g id="node16" class="node">
<title>SidebarInterviewListComponent</title>
<polygon fill="#ffffb3" stroke="#000000" points="351.5126,-122 152.4874,-122 152.4874,-86 351.5126,-86 351.5126,-122"/>
<text text-anchor="middle" x="252" y="-99.8" font-family="Times,serif" font-size="14.00" fill="#000000">SidebarInterviewListComponent</text>
</g>
<!-- SidebarInterviewListComponent&#45;&gt;SharedModule -->
<g id="edge16" class="edge">
<title>SidebarInterviewListComponent&#45;&gt;SharedModule</title>
<path fill="none" stroke="#000000" d="M252,-122.0449C252,-143.6623 252,-177 252,-177 252,-177 1418.4209,-177 1418.4209,-177"/>
<polygon fill="#000000" stroke="#000000" points="1418.4209,-180.5001 1428.4209,-177 1418.4209,-173.5001 1418.4209,-180.5001"/>
</g>
<!-- ActionListenerDirective  -->
<g id="node19" class="node">
<title>ActionListenerDirective </title>
<polygon fill="#fb8072" stroke="#000000" points="1752.554,-252 1597.446,-252 1597.446,-216 1752.554,-216 1752.554,-252"/>
<text text-anchor="middle" x="1675" y="-229.8" font-family="Times,serif" font-size="14.00" fill="#000000">ActionListenerDirective </text>
</g>
<!-- SharedModule&#45;&gt;ActionListenerDirective  -->
<g id="edge18" class="edge">
<title>SharedModule&#45;&gt;ActionListenerDirective </title>
<path fill="none" stroke="#000000" stroke-dasharray="5,2" d="M1527.6392,-184C1573.6015,-184 1634.8845,-184 1634.8845,-184 1634.8845,-184 1634.8845,-205.9489 1634.8845,-205.9489"/>
<polygon fill="#000000" stroke="#000000" points="1631.3845,-205.9488 1634.8845,-215.9489 1638.3845,-205.9489 1631.3845,-205.9488"/>
</g>
<!-- FactorsPipe  -->
<g id="node20" class="node">
<title>FactorsPipe </title>
<polygon fill="#fb8072" stroke="#000000" points="1578.5964,-252 1493.4036,-252 1493.4036,-216 1578.5964,-216 1578.5964,-252"/>
<text text-anchor="middle" x="1536" y="-229.8" font-family="Times,serif" font-size="14.00" fill="#000000">FactorsPipe </text>
</g>
<!-- SharedModule&#45;&gt;FactorsPipe  -->
<g id="edge19" class="edge">
<title>SharedModule&#45;&gt;FactorsPipe </title>
<path fill="none" stroke="#000000" stroke-dasharray="5,2" d="M1510.2067,-187.1061C1510.2067,-187.1061 1510.2067,-205.991 1510.2067,-205.991"/>
<polygon fill="#000000" stroke="#000000" points="1506.7068,-205.9909 1510.2067,-215.991 1513.7068,-205.991 1506.7068,-205.9909"/>
</g>
<!-- NebularModule  -->
<g id="node21" class="node">
<title>NebularModule </title>
<polygon fill="#fb8072" stroke="#000000" points="1475.1369,-252 1366.8631,-252 1366.8631,-216 1475.1369,-216 1475.1369,-252"/>
<text text-anchor="middle" x="1421" y="-229.8" font-family="Times,serif" font-size="14.00" fill="#000000">NebularModule </text>
</g>
<!-- SharedModule&#45;&gt;NebularModule  -->
<g id="edge20" class="edge">
<title>SharedModule&#45;&gt;NebularModule </title>
<path fill="none" stroke="#000000" stroke-dasharray="5,2" d="M1451.9286,-187.1061C1451.9286,-187.1061 1451.9286,-205.991 1451.9286,-205.991"/>
<polygon fill="#000000" stroke="#000000" points="1448.4287,-205.9909 1451.9286,-215.991 1455.4287,-205.991 1448.4287,-205.9909"/>
</g>
<!-- SidebarComponent  -->
<g id="node22" class="node">
<title>SidebarComponent </title>
<polygon fill="#fb8072" stroke="#000000" points="1348.596,-252 1221.404,-252 1221.404,-216 1348.596,-216 1348.596,-252"/>
<text text-anchor="middle" x="1285" y="-229.8" font-family="Times,serif" font-size="14.00" fill="#000000">SidebarComponent </text>
</g>
<!-- SharedModule&#45;&gt;SidebarComponent  -->
<g id="edge21" class="edge">
<title>SharedModule&#45;&gt;SidebarComponent </title>
<path fill="none" stroke="#000000" stroke-dasharray="5,2" d="M1428.5483,-184C1371.3652,-184 1285,-184 1285,-184 1285,-184 1285,-205.9489 1285,-205.9489"/>
<polygon fill="#000000" stroke="#000000" points="1281.5001,-205.9488 1285,-215.9489 1288.5001,-205.9489 1281.5001,-205.9488"/>
</g>
<!-- NebularModule -->
<g id="node18" class="node">
<title>NebularModule</title>
<polygon fill="#8dd3c7" stroke="#000000" points="128.1374,-122 125.1374,-126 104.1374,-126 101.1374,-122 23.8626,-122 23.8626,-86 128.1374,-86 128.1374,-122"/>
<text text-anchor="middle" x="76" y="-99.8" font-family="Times,serif" font-size="14.00" fill="#000000">NebularModule</text>
</g>
<!-- NebularModule&#45;&gt;SharedModule -->
<g id="edge17" class="edge">
<title>NebularModule&#45;&gt;SharedModule</title>
<path fill="none" stroke="#000000" d="M76,-122.0109C76,-144.4852 76,-180 76,-180 76,-180 1418.5139,-180 1418.5139,-180"/>
<polygon fill="#000000" stroke="#000000" points="1418.5139,-183.5001 1428.5139,-180 1418.5139,-176.5001 1418.5139,-183.5001"/>
</g>
</g>
</svg>
