<?xml version="1.0" encoding="UTF-8" standalone="no"?>
<!DOCTYPE svg PUBLIC "-//W3C//DTD SVG 1.1//EN"
 "http://www.w3.org/Graphics/SVG/1.1/DTD/svg11.dtd">
<!-- Generated by graphviz version 2.40.1 (20161225.0304)
 -->
<!-- Title: dependencies Pages: 1 -->
<svg width="2037pt" height="284pt"
 viewBox="0.00 0.00 2037.00 284.00" xmlns="http://www.w3.org/2000/svg" xmlns:xlink="http://www.w3.org/1999/xlink">
<g id="graph0" class="graph" transform="scale(1 1) rotate(0) translate(4 280)">
<title>dependencies</title>
<polygon fill="#ffffff" stroke="transparent" points="-4,4 -4,-280 2033,-280 2033,4 -4,4"/>
<text text-anchor="start" x="993.5091" y="-42.4" font-family="sans-serif" font-weight="bold" font-size="14.00" fill="#000000">Legend</text>
<polygon fill="#ffffb3" stroke="transparent" points="780.5,-10 780.5,-30 800.5,-30 800.5,-10 780.5,-10"/>
<text text-anchor="start" x="804.129" y="-15.4" font-family="sans-serif" font-size="14.00" fill="#000000"> &#160;Declarations</text>
<polygon fill="#8dd3c7" stroke="transparent" points="893.5,-10 893.5,-30 913.5,-30 913.5,-10 893.5,-10"/>
<text text-anchor="start" x="917.2251" y="-15.4" font-family="sans-serif" font-size="14.00" fill="#000000"> &#160;Module</text>
<polygon fill="#80b1d3" stroke="transparent" points="979.5,-10 979.5,-30 999.5,-30 999.5,-10 979.5,-10"/>
<text text-anchor="start" x="1003.2812" y="-15.4" font-family="sans-serif" font-size="14.00" fill="#000000"> &#160;Bootstrap</text>
<polygon fill="#fdb462" stroke="transparent" points="1076.5,-10 1076.5,-30 1096.5,-30 1096.5,-10 1076.5,-10"/>
<text text-anchor="start" x="1100.1732" y="-15.4" font-family="sans-serif" font-size="14.00" fill="#000000"> &#160;Providers</text>
<polygon fill="#fb8072" stroke="transparent" points="1172.5,-10 1172.5,-30 1192.5,-30 1192.5,-10 1172.5,-10"/>
<text text-anchor="start" x="1196.2258" y="-15.4" font-family="sans-serif" font-size="14.00" fill="#000000"> &#160;Exports</text>
<g id="clust1" class="cluster">
<title>cluster_SharedModule</title>
<polygon fill="none" stroke="#000000" stroke-dasharray="1,5" points="8,-70 8,-268 2021,-268 2021,-70 8,-70"/>
</g>
<g id="clust2" class="cluster">
<title>cluster_SharedModule_declarations</title>
<polygon fill="none" stroke="#000000" points="158,-78 158,-130 1994,-130 1994,-78 158,-78"/>
</g>
<g id="clust13" class="cluster">
<title>cluster_SharedModule_imports</title>
<polygon fill="none" stroke="#000000" points="30,-78 30,-130 150,-130 150,-78 30,-78"/>
</g>
<g id="clust14" class="cluster">
<title>cluster_SharedModule_exports</title>
<polygon fill="none" stroke="#000000" points="16,-208 16,-260 2013,-260 2013,-208 16,-208"/>
</g>
<!-- ActionListenerDirective -->
<g id="node1" class="node">
<title>ActionListenerDirective</title>
<polygon fill="#ffffb3" stroke="#000000" points="1986.0534,-122 1833.9466,-122 1833.9466,-86 1986.0534,-86 1986.0534,-122"/>
<text text-anchor="middle" x="1910" y="-99.8" font-family="Times,serif" font-size="14.00" fill="#000000">ActionListenerDirective</text>
</g>
<!-- SharedModule -->
<g id="node11" class="node">
<title>SharedModule</title>
<polygon fill="#8dd3c7" stroke="#000000" points="915.4231,-187 912.4231,-191 891.4231,-191 888.4231,-187 816.5769,-187 816.5769,-151 915.4231,-151 915.4231,-187"/>
<text text-anchor="middle" x="866" y="-164.8" font-family="Times,serif" font-size="14.00" fill="#000000">SharedModule</text>
</g>
<!-- ActionListenerDirective&#45;&gt;SharedModule -->
<g id="edge1" class="edge">
<title>ActionListenerDirective&#45;&gt;SharedModule</title>
<path fill="none" stroke="#000000" d="M1841.5983,-122.1686C1841.5983,-141.0898 1841.5983,-168 1841.5983,-168 1841.5983,-168 925.3845,-168 925.3845,-168"/>
<polygon fill="#000000" stroke="#000000" points="925.3845,-164.5001 915.3845,-168 925.3844,-171.5001 925.3845,-164.5001"/>
</g>
<!-- AddAuditDialogComponent -->
<g id="node2" class="node">
<title>AddAuditDialogComponent</title>
<polygon fill="#ffffb3" stroke="#000000" points="1815.9297,-122 1640.0703,-122 1640.0703,-86 1815.9297,-86 1815.9297,-122"/>
<text text-anchor="middle" x="1728" y="-99.8" font-family="Times,serif" font-size="14.00" fill="#000000">AddAuditDialogComponent</text>
</g>
<!-- AddAuditDialogComponent&#45;&gt;SharedModule -->
<g id="edge2" class="edge">
<title>AddAuditDialogComponent&#45;&gt;SharedModule</title>
<path fill="none" stroke="#000000" d="M1646.4104,-122.302C1646.4104,-140.2699 1646.4104,-165 1646.4104,-165 1646.4104,-165 925.4102,-165 925.4102,-165"/>
<polygon fill="#000000" stroke="#000000" points="925.4103,-161.5001 915.4102,-165 925.4102,-168.5001 925.4103,-161.5001"/>
</g>
<!-- AddContactPersonDialogComponent -->
<g id="node3" class="node">
<title>AddContactPersonDialogComponent</title>
<polygon fill="#ffffb3" stroke="#000000" points="1622.6909,-122 1397.3091,-122 1397.3091,-86 1622.6909,-86 1622.6909,-122"/>
<text text-anchor="middle" x="1510" y="-99.8" font-family="Times,serif" font-size="14.00" fill="#000000">AddContactPersonDialogComponent</text>
</g>
<!-- AddContactPersonDialogComponent&#45;&gt;SharedModule -->
<g id="edge3" class="edge">
<title>AddContactPersonDialogComponent&#45;&gt;SharedModule</title>
<path fill="none" stroke="#000000" d="M1401.5296,-122.0352C1401.5296,-138.7344 1401.5296,-161 1401.5296,-161 1401.5296,-161 925.4214,-161 925.4214,-161"/>
<polygon fill="#000000" stroke="#000000" points="925.4215,-157.5001 915.4214,-161 925.4214,-164.5001 925.4215,-157.5001"/>
</g>
<!-- AuditDataFormComponent -->
<g id="node4" class="node">
<title>AuditDataFormComponent</title>
<polygon fill="#ffffb3" stroke="#000000" points="1378.9804,-122 1209.0196,-122 1209.0196,-86 1378.9804,-86 1378.9804,-122"/>
<text text-anchor="middle" x="1294" y="-99.8" font-family="Times,serif" font-size="14.00" fill="#000000">AuditDataFormComponent</text>
</g>
<!-- AuditDataFormComponent&#45;&gt;SharedModule -->
<g id="edge4" class="edge">
<title>AuditDataFormComponent&#45;&gt;SharedModule</title>
<path fill="none" stroke="#000000" d="M1324.0801,-122.2819C1324.0801,-137.9478 1324.0801,-158 1324.0801,-158 1324.0801,-158 925.4578,-158 925.4578,-158"/>
<polygon fill="#000000" stroke="#000000" points="925.4579,-154.5001 915.4578,-158 925.4578,-161.5001 925.4579,-154.5001"/>
</g>
<!-- ConfirmDiscardDialogComponent -->
<g id="node5" class="node">
<title>ConfirmDiscardDialogComponent</title>
<polygon fill="#ffffb3" stroke="#000000" points="1191.4058,-122 980.5942,-122 980.5942,-86 1191.4058,-86 1191.4058,-122"/>
<text text-anchor="middle" x="1086" y="-99.8" font-family="Times,serif" font-size="14.00" fill="#000000">ConfirmDiscardDialogComponent</text>
</g>
<!-- ConfirmDiscardDialogComponent&#45;&gt;SharedModule -->
<g id="edge5" class="edge">
<title>ConfirmDiscardDialogComponent&#45;&gt;SharedModule</title>
<path fill="none" stroke="#000000" d="M1121.4842,-122.1243C1121.4842,-136.7832 1121.4842,-155 1121.4842,-155 1121.4842,-155 925.2599,-155 925.2599,-155"/>
<polygon fill="#000000" stroke="#000000" points="925.26,-151.5001 915.2599,-155 925.2599,-158.5001 925.26,-151.5001"/>
</g>
<!-- ContactPersonFormComponent -->
<g id="node6" class="node">
<title>ContactPersonFormComponent</title>
<polygon fill="#ffffb3" stroke="#000000" points="962.8159,-122 769.1841,-122 769.1841,-86 962.8159,-86 962.8159,-122"/>
<text text-anchor="middle" x="866" y="-99.8" font-family="Times,serif" font-size="14.00" fill="#000000">ContactPersonFormComponent</text>
</g>
<!-- ContactPersonFormComponent&#45;&gt;SharedModule -->
<g id="edge6" class="edge">
<title>ContactPersonFormComponent&#45;&gt;SharedModule</title>
<path fill="none" stroke="#000000" d="M866,-122.1061C866,-122.1061 866,-140.991 866,-140.991"/>
<polygon fill="#000000" stroke="#000000" points="862.5001,-140.9909 866,-150.991 869.5001,-140.991 862.5001,-140.9909"/>
</g>
<!-- EditAuditDialogComponent -->
<g id="node7" class="node">
<title>EditAuditDialogComponent</title>
<polygon fill="#ffffb3" stroke="#000000" points="751.1567,-122 576.8433,-122 576.8433,-86 751.1567,-86 751.1567,-122"/>
<text text-anchor="middle" x="664" y="-99.8" font-family="Times,serif" font-size="14.00" fill="#000000">EditAuditDialogComponent</text>
</g>
<!-- EditAuditDialogComponent&#45;&gt;SharedModule -->
<g id="edge7" class="edge">
<title>EditAuditDialogComponent&#45;&gt;SharedModule</title>
<path fill="none" stroke="#000000" d="M692.2761,-122.1243C692.2761,-136.7832 692.2761,-155 692.2761,-155 692.2761,-155 806.6824,-155 806.6824,-155"/>
<polygon fill="#000000" stroke="#000000" points="806.6824,-158.5001 816.6824,-155 806.6823,-151.5001 806.6824,-158.5001"/>
</g>
<!-- NavbarComponent -->
<g id="node8" class="node">
<title>NavbarComponent</title>
<polygon fill="#ffffb3" stroke="#000000" points="558.0297,-122 435.9703,-122 435.9703,-86 558.0297,-86 558.0297,-122"/>
<text text-anchor="middle" x="497" y="-99.8" font-family="Times,serif" font-size="14.00" fill="#000000">NavbarComponent</text>
</g>
<!-- NavbarComponent&#45;&gt;SharedModule -->
<g id="edge8" class="edge">
<title>NavbarComponent&#45;&gt;SharedModule</title>
<path fill="none" stroke="#000000" d="M514.5881,-122.2819C514.5881,-137.9478 514.5881,-158 514.5881,-158 514.5881,-158 806.7677,-158 806.7677,-158"/>
<polygon fill="#000000" stroke="#000000" points="806.7677,-161.5001 816.7677,-158 806.7676,-154.5001 806.7677,-161.5001"/>
</g>
<!-- NotFoundComponent -->
<g id="node9" class="node">
<title>NotFoundComponent</title>
<polygon fill="#ffffb3" stroke="#000000" points="418.1122,-122 279.8878,-122 279.8878,-86 418.1122,-86 418.1122,-122"/>
<text text-anchor="middle" x="349" y="-99.8" font-family="Times,serif" font-size="14.00" fill="#000000">NotFoundComponent</text>
</g>
<!-- NotFoundComponent&#45;&gt;SharedModule -->
<g id="edge9" class="edge">
<title>NotFoundComponent&#45;&gt;SharedModule</title>
<path fill="none" stroke="#000000" d="M414.0623,-122.0352C414.0623,-138.7344 414.0623,-161 414.0623,-161 414.0623,-161 806.7744,-161 806.7744,-161"/>
<polygon fill="#000000" stroke="#000000" points="806.7745,-164.5001 816.7744,-161 806.7744,-157.5001 806.7745,-164.5001"/>
</g>
<!-- SortAuditPipe -->
<g id="node10" class="node">
<title>SortAuditPipe</title>
<polygon fill="#ffffb3" stroke="#000000" points="262.1095,-122 165.8905,-122 165.8905,-86 262.1095,-86 262.1095,-122"/>
<text text-anchor="middle" x="214" y="-99.8" font-family="Times,serif" font-size="14.00" fill="#000000">SortAuditPipe</text>
</g>
<!-- SortAuditPipe&#45;&gt;SharedModule -->
<g id="edge10" class="edge">
<title>SortAuditPipe&#45;&gt;SharedModule</title>
<path fill="none" stroke="#000000" d="M214,-122.302C214,-140.2699 214,-165 214,-165 214,-165 806.7268,-165 806.7268,-165"/>
<polygon fill="#000000" stroke="#000000" points="806.7268,-168.5001 816.7268,-165 806.7267,-161.5001 806.7268,-168.5001"/>
</g>
<!-- ActionListenerDirective  -->
<g id="node13" class="node">
<title>ActionListenerDirective </title>
<polygon fill="#fb8072" stroke="#000000" points="2004.554,-252 1849.446,-252 1849.446,-216 2004.554,-216 2004.554,-252"/>
<text text-anchor="middle" x="1927" y="-229.8" font-family="Times,serif" font-size="14.00" fill="#000000">ActionListenerDirective </text>
</g>
<!-- SharedModule&#45;&gt;ActionListenerDirective  -->
<g id="edge12" class="edge">
<title>SharedModule&#45;&gt;ActionListenerDirective </title>
<path fill="none" stroke="#000000" stroke-dasharray="5,2" d="M915.3115,-171C1123.2218,-171 1917.625,-171 1917.625,-171 1917.625,-171 1917.625,-205.7778 1917.625,-205.7778"/>
<polygon fill="#000000" stroke="#000000" points="1914.1251,-205.7778 1917.625,-215.7778 1921.1251,-205.7778 1914.1251,-205.7778"/>
</g>
<!-- AddAuditDialogComponent  -->
<g id="node14" class="node">
<title>AddAuditDialogComponent </title>
<polygon fill="#fb8072" stroke="#000000" points="1831.4292,-252 1652.5708,-252 1652.5708,-216 1831.4292,-216 1831.4292,-252"/>
<text text-anchor="middle" x="1742" y="-229.8" font-family="Times,serif" font-size="14.00" fill="#000000">AddAuditDialogComponent </text>
</g>
<!-- SharedModule&#45;&gt;AddAuditDialogComponent  -->
<g id="edge13" class="edge">
<title>SharedModule&#45;&gt;AddAuditDialogComponent </title>
<path fill="none" stroke="#000000" stroke-dasharray="5,2" d="M915.4764,-174C1099.5329,-174 1734.125,-174 1734.125,-174 1734.125,-174 1734.125,-205.998 1734.125,-205.998"/>
<polygon fill="#000000" stroke="#000000" points="1730.6251,-205.998 1734.125,-215.998 1737.6251,-205.9981 1730.6251,-205.998"/>
</g>
<!-- AddContactPersonDialogComponent  -->
<g id="node15" class="node">
<title>AddContactPersonDialogComponent </title>
<polygon fill="#fb8072" stroke="#000000" points="1634.191,-252 1405.809,-252 1405.809,-216 1634.191,-216 1634.191,-252"/>
<text text-anchor="middle" x="1520" y="-229.8" font-family="Times,serif" font-size="14.00" fill="#000000">AddContactPersonDialogComponent </text>
</g>
<!-- SharedModule&#45;&gt;AddContactPersonDialogComponent  -->
<g id="edge14" class="edge">
<title>SharedModule&#45;&gt;AddContactPersonDialogComponent </title>
<path fill="none" stroke="#000000" stroke-dasharray="5,2" d="M915.2467,-178C1066.4962,-178 1514.125,-178 1514.125,-178 1514.125,-178 1514.125,-205.973 1514.125,-205.973"/>
<polygon fill="#000000" stroke="#000000" points="1510.6251,-205.973 1514.125,-215.973 1517.6251,-205.973 1510.6251,-205.973"/>
</g>
<!-- AuditDataFormComponent  -->
<g id="node16" class="node">
<title>AuditDataFormComponent </title>
<polygon fill="#fb8072" stroke="#000000" points="1387.9811,-252 1214.0189,-252 1214.0189,-216 1387.9811,-216 1387.9811,-252"/>
<text text-anchor="middle" x="1301" y="-229.8" font-family="Times,serif" font-size="14.00" fill="#000000">AuditDataFormComponent </text>
</g>
<!-- SharedModule&#45;&gt;AuditDataFormComponent  -->
<g id="edge15" class="edge">
<title>SharedModule&#45;&gt;AuditDataFormComponent </title>
<path fill="none" stroke="#000000" stroke-dasharray="5,2" d="M915.4365,-181C1023.0945,-181 1269.1699,-181 1269.1699,-181 1269.1699,-181 1269.1699,-205.7604 1269.1699,-205.7604"/>
<polygon fill="#000000" stroke="#000000" points="1265.67,-205.7604 1269.1699,-215.7604 1272.67,-205.7604 1265.67,-205.7604"/>
</g>
<!-- ConfirmDiscardDialogComponent  -->
<g id="node17" class="node">
<title>ConfirmDiscardDialogComponent </title>
<polygon fill="#fb8072" stroke="#000000" points="1195.9054,-252 982.0946,-252 982.0946,-216 1195.9054,-216 1195.9054,-252"/>
<text text-anchor="middle" x="1089" y="-229.8" font-family="Times,serif" font-size="14.00" fill="#000000">ConfirmDiscardDialogComponent </text>
</g>
<!-- SharedModule&#45;&gt;ConfirmDiscardDialogComponent  -->
<g id="edge16" class="edge">
<title>SharedModule&#45;&gt;ConfirmDiscardDialogComponent </title>
<path fill="none" stroke="#000000" stroke-dasharray="5,2" d="M915.2941,-184C970.3281,-184 1051.7658,-184 1051.7658,-184 1051.7658,-184 1051.7658,-205.9489 1051.7658,-205.9489"/>
<polygon fill="#000000" stroke="#000000" points="1048.2659,-205.9488 1051.7658,-215.9489 1055.2659,-205.9489 1048.2659,-205.9488"/>
</g>
<!-- ContactPersonFormComponent  -->
<g id="node18" class="node">
<title>ContactPersonFormComponent </title>
<polygon fill="#fb8072" stroke="#000000" points="964.3157,-252 767.6843,-252 767.6843,-216 964.3157,-216 964.3157,-252"/>
<text text-anchor="middle" x="866" y="-229.8" font-family="Times,serif" font-size="14.00" fill="#000000">ContactPersonFormComponent </text>
</g>
<!-- SharedModule&#45;&gt;ContactPersonFormComponent  -->
<g id="edge17" class="edge">
<title>SharedModule&#45;&gt;ContactPersonFormComponent </title>
<path fill="none" stroke="#000000" stroke-dasharray="5,2" d="M866,-187.1061C866,-187.1061 866,-205.991 866,-205.991"/>
<polygon fill="#000000" stroke="#000000" points="862.5001,-205.9909 866,-215.991 869.5001,-205.991 862.5001,-205.9909"/>
</g>
<!-- EditAuditDialogComponent  -->
<g id="node19" class="node">
<title>EditAuditDialogComponent </title>
<polygon fill="#fb8072" stroke="#000000" points="750.1565,-252 571.8435,-252 571.8435,-216 750.1565,-216 750.1565,-252"/>
<text text-anchor="middle" x="661" y="-229.8" font-family="Times,serif" font-size="14.00" fill="#000000">EditAuditDialogComponent </text>
</g>
<!-- SharedModule&#45;&gt;EditAuditDialogComponent  -->
<g id="edge18" class="edge">
<title>SharedModule&#45;&gt;EditAuditDialogComponent </title>
<path fill="none" stroke="#000000" stroke-dasharray="5,2" d="M816.6158,-184C748.6192,-184 634.4739,-184 634.4739,-184 634.4739,-184 634.4739,-205.9489 634.4739,-205.9489"/>
<polygon fill="#000000" stroke="#000000" points="630.974,-205.9488 634.4739,-215.9489 637.974,-205.9489 630.974,-205.9488"/>
</g>
<!-- NavbarComponent  -->
<g id="node20" class="node">
<title>NavbarComponent </title>
<polygon fill="#fb8072" stroke="#000000" points="554.0288,-252 427.9712,-252 427.9712,-216 554.0288,-216 554.0288,-252"/>
<text text-anchor="middle" x="491" y="-229.8" font-family="Times,serif" font-size="14.00" fill="#000000">NavbarComponent </text>
</g>
<!-- SharedModule&#45;&gt;NavbarComponent  -->
<g id="edge19" class="edge">
<title>SharedModule&#45;&gt;NavbarComponent </title>
<path fill="none" stroke="#000000" stroke-dasharray="5,2" d="M816.5001,-181C711.331,-181 475.1619,-181 475.1619,-181 475.1619,-181 475.1619,-205.7604 475.1619,-205.7604"/>
<polygon fill="#000000" stroke="#000000" points="471.662,-205.7604 475.1619,-215.7604 478.662,-205.7604 471.662,-205.7604"/>
</g>
<!-- NebularModule  -->
<g id="node21" class="node">
<title>NebularModule </title>
<polygon fill="#fb8072" stroke="#000000" points="410.1369,-252 301.8631,-252 301.8631,-216 410.1369,-216 410.1369,-252"/>
<text text-anchor="middle" x="356" y="-229.8" font-family="Times,serif" font-size="14.00" fill="#000000">NebularModule </text>
</g>
<!-- SharedModule&#45;&gt;NebularModule  -->
<g id="edge20" class="edge">
<title>SharedModule&#45;&gt;NebularModule </title>
<path fill="none" stroke="#000000" stroke-dasharray="5,2" d="M816.6357,-178C688.6452,-178 356,-178 356,-178 356,-178 356,-205.973 356,-205.973"/>
<polygon fill="#000000" stroke="#000000" points="352.5001,-205.973 356,-215.973 359.5001,-205.973 352.5001,-205.973"/>
</g>
<!-- NotFoundComponent  -->
<g id="node22" class="node">
<title>NotFoundComponent </title>
<polygon fill="#fb8072" stroke="#000000" points="283.6127,-252 142.3873,-252 142.3873,-216 283.6127,-216 283.6127,-252"/>
<text text-anchor="middle" x="213" y="-229.8" font-family="Times,serif" font-size="14.00" fill="#000000">NotFoundComponent </text>
</g>
<!-- SharedModule&#45;&gt;NotFoundComponent  -->
<g id="edge21" class="edge">
<title>SharedModule&#45;&gt;NotFoundComponent </title>
<path fill="none" stroke="#000000" stroke-dasharray="5,2" d="M816.5485,-174C673.7695,-174 270.9993,-174 270.9993,-174 270.9993,-174 270.9993,-205.998 270.9993,-205.998"/>
<polygon fill="#000000" stroke="#000000" points="267.4992,-205.9981 270.9993,-215.998 274.4992,-205.998 267.4992,-205.9981"/>
</g>
<!-- SortAuditPipe  -->
<g id="node23" class="node">
<title>SortAuditPipe </title>
<polygon fill="#fb8072" stroke="#000000" points="123.6102,-252 24.3898,-252 24.3898,-216 123.6102,-216 123.6102,-252"/>
<text text-anchor="middle" x="74" y="-229.8" font-family="Times,serif" font-size="14.00" fill="#000000">SortAuditPipe </text>
</g>
<!-- SharedModule&#45;&gt;SortAuditPipe  -->
<g id="edge22" class="edge">
<title>SharedModule&#45;&gt;SortAuditPipe </title>
<path fill="none" stroke="#000000" stroke-dasharray="5,2" d="M816.5812,-171C644.3169,-171 80.7432,-171 80.7432,-171 80.7432,-171 80.7432,-205.7778 80.7432,-205.7778"/>
<polygon fill="#000000" stroke="#000000" points="77.2432,-205.7778 80.7432,-215.7778 84.2432,-205.7778 77.2432,-205.7778"/>
</g>
<!-- NebularModule -->
<g id="node12" class="node">
<title>NebularModule</title>
<polygon fill="#8dd3c7" stroke="#000000" points="142.1374,-122 139.1374,-126 118.1374,-126 115.1374,-122 37.8626,-122 37.8626,-86 142.1374,-86 142.1374,-122"/>
<text text-anchor="middle" x="90" y="-99.8" font-family="Times,serif" font-size="14.00" fill="#000000">NebularModule</text>
</g>
<!-- NebularModule&#45;&gt;SharedModule -->
<g id="edge11" class="edge">
<title>NebularModule&#45;&gt;SharedModule</title>
<path fill="none" stroke="#000000" d="M132.9993,-122.1686C132.9993,-141.0898 132.9993,-168 132.9993,-168 132.9993,-168 806.7676,-168 806.7676,-168"/>
<polygon fill="#000000" stroke="#000000" points="806.7676,-171.5001 816.7676,-168 806.7675,-164.5001 806.7676,-171.5001"/>
</g>
</g>
</svg>
