<?xml version="1.0" encoding="UTF-8"?>
<!-- Generator: Adobe Illustrator 23.0.1, SVG Export Plug-In . SVG Version: 6.00 Build 0)  -->
<svg version="1.1" id="_x3C_Ebene_x3E_" xmlns="http://www.w3.org/2000/svg" xmlns:xlink="http://www.w3.org/1999/xlink" x="0px" y="0px" viewBox="0 0 491.32 153.25" style="enable-background:new 0 0 491.32 153.25;" xml:space="preserve">
<style type="text/css">
	.st0{fill:#841439;}
	.st1{fill:#6F6F6F;}
	.st2{fill-rule:evenodd;clip-rule:evenodd;fill:#6F6F6F;}
</style>
<path class="st0" d="M1.35,92.48c0-14.09,11.42-25.51,25.51-25.51c14.09,0,25.51,11.42,25.51,25.51c0,14.09-11.42,25.51-25.51,25.51  C12.77,117.99,1.35,106.57,1.35,92.48L1.35,92.48z"/>
<path class="st1" d="M68.81,0v117.24h21.39v-99.4c0,0,33.07,0,49,0v99.4h21.46v-99.4c14.13,0,26.16,0,32.59,0  c11.01,0,18.78,6.6,18.78,20.93v78.47h21.41c0-30.77,0-57.61,0-84.4c0-15.97-8.24-32.84-29.41-32.84H68.81L68.81,0z"/>
<path class="st1" d="M276.32,0c-23.11,0-30.11,15.35-30.11,32.54c0,18.36,7.63,33.83,28.63,33.83c18.94,0,36.68,0,50.93,0  c15.6,0,15.6,11.99,15.6,17.45c0,5.09,0,15.55-15.21,15.55c-12.16,0-77.95,0-77.95,0s0,12.88,0,17.88h86.91  c21.67,0,27.88-12.73,27.88-33.27c0-24.47-7.99-35.44-26.51-35.44c-21.81,0-37.11,0-54.99,0c-13.88,0-13.88-9.38-13.88-15.62  c0-4.88,1.38-15.07,16.25-15.07c15.62,0,75.12,0,75.12,0c0-7.18,0-11.05,0-17.84H276.32L276.32,0z"/>
<path class="st2" d="M418.6,0c-19.08,0-26.18,3.05-31.42,7.22c-5.71,4.55-10.94,10.34-11.05,29.99v20.94v21.39  c0,20.83,5.78,26.65,11.7,31.62c3.98,2.84,10.57,6.08,30.82,6.08h51.34c0,0,0.03,3.58,0.01,4.53c-0.01,8.85-1.71,12.71-11.85,12.71  h-66.93v18.77h73.76c19.89,0,26.33-8.85,26.33-25.57V0H418.6z M470,99.39h-44.89c-13.27,0.08-26.72,1-27.07-16.19  c-0.01-0.71-0.07-7.04,0-25.42c0.06-15.59-0.08-19.31,0-20.93c0.74-14.4,6.05-19.52,28.02-19c1.29,0.03,43.95,0,43.95,0V99.39z"/>
</svg>