<?xml version="1.0" encoding="UTF-8" standalone="no"?>
<!DOCTYPE svg PUBLIC "-//W3C//DTD SVG 1.1//EN"
 "http://www.w3.org/Graphics/SVG/1.1/DTD/svg11.dtd">
<!-- Generated by graphviz version 2.40.1 (20161225.0304)
 -->
<!-- Title: dependencies Pages: 1 -->
<svg width="729pt" height="211pt"
 viewBox="0.00 0.00 729.00 211.00" xmlns="http://www.w3.org/2000/svg" xmlns:xlink="http://www.w3.org/1999/xlink">
<g id="graph0" class="graph" transform="scale(1 1) rotate(0) translate(4 207)">
<title>dependencies</title>
<polygon fill="#ffffff" stroke="transparent" points="-4,4 -4,-207 725,-207 725,4 -4,4"/>
<text text-anchor="start" x="339.5091" y="-42.4" font-family="sans-serif" font-weight="bold" font-size="14.00" fill="#000000">Legend</text>
<polygon fill="#ffffb3" stroke="transparent" points="126.5,-10 126.5,-30 146.5,-30 146.5,-10 126.5,-10"/>
<text text-anchor="start" x="150.129" y="-15.4" font-family="sans-serif" font-size="14.00" fill="#000000"> &#160;Declarations</text>
<polygon fill="#8dd3c7" stroke="transparent" points="239.5,-10 239.5,-30 259.5,-30 259.5,-10 239.5,-10"/>
<text text-anchor="start" x="263.2251" y="-15.4" font-family="sans-serif" font-size="14.00" fill="#000000"> &#160;Module</text>
<polygon fill="#80b1d3" stroke="transparent" points="325.5,-10 325.5,-30 345.5,-30 345.5,-10 325.5,-10"/>
<text text-anchor="start" x="349.2812" y="-15.4" font-family="sans-serif" font-size="14.00" fill="#000000"> &#160;Bootstrap</text>
<polygon fill="#fdb462" stroke="transparent" points="422.5,-10 422.5,-30 442.5,-30 442.5,-10 422.5,-10"/>
<text text-anchor="start" x="446.1732" y="-15.4" font-family="sans-serif" font-size="14.00" fill="#000000"> &#160;Providers</text>
<polygon fill="#fb8072" stroke="transparent" points="518.5,-10 518.5,-30 538.5,-30 538.5,-10 518.5,-10"/>
<text text-anchor="start" x="542.2258" y="-15.4" font-family="sans-serif" font-size="14.00" fill="#000000"> &#160;Exports</text>
<g id="clust1" class="cluster">
<title>cluster_AuditsModule</title>
<polygon fill="none" stroke="#000000" stroke-dasharray="1,5" points="8,-70 8,-195 713,-195 713,-70 8,-70"/>
</g>
<g id="clust2" class="cluster">
<title>cluster_AuditsModule_declarations</title>
<polygon fill="none" stroke="#000000" points="298,-78 298,-130 705,-130 705,-78 298,-78"/>
</g>
<g id="clust6" class="cluster">
<title>cluster_AuditsModule_imports</title>
<polygon fill="none" stroke="#000000" points="16,-78 16,-130 290,-130 290,-78 16,-78"/>
</g>
<!-- AuditCardComponent -->
<g id="node1" class="node">
<title>AuditCardComponent</title>
<polygon fill="#ffffb3" stroke="#000000" points="697.4327,-122 556.5673,-122 556.5673,-86 697.4327,-86 697.4327,-122"/>
<text text-anchor="middle" x="627" y="-99.8" font-family="Times,serif" font-size="14.00" fill="#000000">AuditCardComponent</text>
</g>
<!-- AuditsModule -->
<g id="node4" class="node">
<title>AuditsModule</title>
<polygon fill="#8dd3c7" stroke="#000000" points="402.3823,-187 399.3823,-191 378.3823,-191 375.3823,-187 305.6177,-187 305.6177,-151 402.3823,-151 402.3823,-187"/>
<text text-anchor="middle" x="354" y="-164.8" font-family="Times,serif" font-size="14.00" fill="#000000">AuditsModule</text>
</g>
<!-- AuditCardComponent&#45;&gt;AuditsModule -->
<g id="edge1" class="edge">
<title>AuditCardComponent&#45;&gt;AuditsModule</title>
<path fill="none" stroke="#000000" d="M627,-122.2843C627,-143.3211 627,-175 627,-175 627,-175 412.4924,-175 412.4924,-175"/>
<polygon fill="#000000" stroke="#000000" points="412.4924,-171.5001 402.4924,-175 412.4923,-178.5001 412.4924,-171.5001"/>
</g>
<!-- AuditsComponent -->
<g id="node2" class="node">
<title>AuditsComponent</title>
<polygon fill="#ffffb3" stroke="#000000" points="538.1653,-122 419.8347,-122 419.8347,-86 538.1653,-86 538.1653,-122"/>
<text text-anchor="middle" x="479" y="-99.8" font-family="Times,serif" font-size="14.00" fill="#000000">AuditsComponent</text>
</g>
<!-- AuditsComponent&#45;&gt;AuditsModule -->
<g id="edge2" class="edge">
<title>AuditsComponent&#45;&gt;AuditsModule</title>
<path fill="none" stroke="#000000" d="M479,-122.0225C479,-139.3734 479,-163 479,-163 479,-163 412.6862,-163 412.6862,-163"/>
<polygon fill="#000000" stroke="#000000" points="412.6862,-159.5001 402.6862,-163 412.6862,-166.5001 412.6862,-159.5001"/>
</g>
<!-- SortAuditPipe -->
<g id="node3" class="node">
<title>SortAuditPipe</title>
<polygon fill="#ffffb3" stroke="#000000" points="402.1095,-122 305.8905,-122 305.8905,-86 402.1095,-86 402.1095,-122"/>
<text text-anchor="middle" x="354" y="-99.8" font-family="Times,serif" font-size="14.00" fill="#000000">SortAuditPipe</text>
</g>
<!-- SortAuditPipe&#45;&gt;AuditsModule -->
<g id="edge3" class="edge">
<title>SortAuditPipe&#45;&gt;AuditsModule</title>
<path fill="none" stroke="#000000" d="M354,-122.1061C354,-122.1061 354,-140.991 354,-140.991"/>
<polygon fill="#000000" stroke="#000000" points="350.5001,-140.9909 354,-150.991 357.5001,-140.991 350.5001,-140.9909"/>
</g>
<!-- AuditsRoutingModule -->
<g id="node5" class="node">
<title>AuditsRoutingModule</title>
<polygon fill="#8dd3c7" stroke="#000000" points="282,-122 279,-126 258,-126 255,-122 140,-122 140,-86 282,-86 282,-122"/>
<text text-anchor="middle" x="211" y="-99.8" font-family="Times,serif" font-size="14.00" fill="#000000">AuditsRoutingModule</text>
</g>
<!-- AuditsRoutingModule&#45;&gt;AuditsModule -->
<g id="edge4" class="edge">
<title>AuditsRoutingModule&#45;&gt;AuditsModule</title>
<path fill="none" stroke="#000000" d="M211,-122.0225C211,-139.3734 211,-163 211,-163 211,-163 295.5867,-163 295.5867,-163"/>
<polygon fill="#000000" stroke="#000000" points="295.5868,-166.5001 305.5867,-163 295.5867,-159.5001 295.5868,-166.5001"/>
</g>
<!-- SharedModule -->
<g id="node6" class="node">
<title>SharedModule</title>
<polygon fill="#8dd3c7" stroke="#000000" points="122.4231,-122 119.4231,-126 98.4231,-126 95.4231,-122 23.5769,-122 23.5769,-86 122.4231,-86 122.4231,-122"/>
<text text-anchor="middle" x="73" y="-99.8" font-family="Times,serif" font-size="14.00" fill="#000000">SharedModule</text>
</g>
<!-- SharedModule&#45;&gt;AuditsModule -->
<g id="edge5" class="edge">
<title>SharedModule&#45;&gt;AuditsModule</title>
<path fill="none" stroke="#000000" d="M73,-122.2843C73,-143.3211 73,-175 73,-175 73,-175 295.3743,-175 295.3743,-175"/>
<polygon fill="#000000" stroke="#000000" points="295.3744,-178.5001 305.3743,-175 295.3743,-171.5001 295.3744,-178.5001"/>
</g>
</g>
</svg>
