<?xml version="1.0" encoding="UTF-8" standalone="no"?>
<!DOCTYPE svg PUBLIC "-//W3C//DTD SVG 1.1//EN"
 "http://www.w3.org/Graphics/SVG/1.1/DTD/svg11.dtd">
<!-- Generated by graphviz version 2.40.1 (20161225.0304)
 -->
<!-- Title: dependencies Pages: 1 -->
<svg width="764pt" height="211pt"
 viewBox="0.00 0.00 764.00 211.00" xmlns="http://www.w3.org/2000/svg" xmlns:xlink="http://www.w3.org/1999/xlink">
<g id="graph0" class="graph" transform="scale(1 1) rotate(0) translate(4 207)">
<title>dependencies</title>
<polygon fill="#ffffff" stroke="transparent" points="-4,4 -4,-207 760,-207 760,4 -4,4"/>
<text text-anchor="start" x="357.0091" y="-42.4" font-family="sans-serif" font-weight="bold" font-size="14.00" fill="#000000">Legend</text>
<polygon fill="#ffffb3" stroke="transparent" points="144,-10 144,-30 164,-30 164,-10 144,-10"/>
<text text-anchor="start" x="167.629" y="-15.4" font-family="sans-serif" font-size="14.00" fill="#000000"> &#160;Declarations</text>
<polygon fill="#8dd3c7" stroke="transparent" points="257,-10 257,-30 277,-30 277,-10 257,-10"/>
<text text-anchor="start" x="280.7251" y="-15.4" font-family="sans-serif" font-size="14.00" fill="#000000"> &#160;Module</text>
<polygon fill="#80b1d3" stroke="transparent" points="343,-10 343,-30 363,-30 363,-10 343,-10"/>
<text text-anchor="start" x="366.7812" y="-15.4" font-family="sans-serif" font-size="14.00" fill="#000000"> &#160;Bootstrap</text>
<polygon fill="#fdb462" stroke="transparent" points="440,-10 440,-30 460,-30 460,-10 440,-10"/>
<text text-anchor="start" x="463.6732" y="-15.4" font-family="sans-serif" font-size="14.00" fill="#000000"> &#160;Providers</text>
<polygon fill="#fb8072" stroke="transparent" points="536,-10 536,-30 556,-30 556,-10 536,-10"/>
<text text-anchor="start" x="559.7258" y="-15.4" font-family="sans-serif" font-size="14.00" fill="#000000"> &#160;Exports</text>
<g id="clust1" class="cluster">
<title>cluster_ContactPersonsModule</title>
<polygon fill="none" stroke="#000000" stroke-dasharray="1,5" points="8,-70 8,-195 748,-195 748,-70 8,-70"/>
</g>
<g id="clust2" class="cluster">
<title>cluster_ContactPersonsModule_declarations</title>
<polygon fill="none" stroke="#000000" points="348,-78 348,-130 740,-130 740,-78 348,-78"/>
</g>
<g id="clust5" class="cluster">
<title>cluster_ContactPersonsModule_imports</title>
<polygon fill="none" stroke="#000000" points="16,-78 16,-130 340,-130 340,-78 16,-78"/>
</g>
<!-- ContactPersonCardComponent -->
<g id="node1" class="node">
<title>ContactPersonCardComponent</title>
<polygon fill="#ffffb3" stroke="#000000" points="732.1937,-122 541.8063,-122 541.8063,-86 732.1937,-86 732.1937,-122"/>
<text text-anchor="middle" x="637" y="-99.8" font-family="Times,serif" font-size="14.00" fill="#000000">ContactPersonCardComponent</text>
</g>
<!-- ContactPersonsModule -->
<g id="node3" class="node">
<title>ContactPersonsModule</title>
<polygon fill="#8dd3c7" stroke="#000000" points="411.1442,-187 408.1442,-191 387.1442,-191 384.1442,-187 264.8558,-187 264.8558,-151 411.1442,-151 411.1442,-187"/>
<text text-anchor="middle" x="338" y="-164.8" font-family="Times,serif" font-size="14.00" fill="#000000">ContactPersonsModule</text>
</g>
<!-- ContactPersonCardComponent&#45;&gt;ContactPersonsModule -->
<g id="edge1" class="edge">
<title>ContactPersonCardComponent&#45;&gt;ContactPersonsModule</title>
<path fill="none" stroke="#000000" d="M637,-122.1061C637,-141.3391 637,-169 637,-169 637,-169 421.5266,-169 421.5266,-169"/>
<polygon fill="#000000" stroke="#000000" points="421.5266,-165.5001 411.5266,-169 421.5265,-172.5001 421.5266,-165.5001"/>
</g>
<!-- ContactPersonsComponent -->
<g id="node2" class="node">
<title>ContactPersonsComponent</title>
<polygon fill="#ffffb3" stroke="#000000" points="524.4269,-122 355.5731,-122 355.5731,-86 524.4269,-86 524.4269,-122"/>
<text text-anchor="middle" x="440" y="-99.8" font-family="Times,serif" font-size="14.00" fill="#000000">ContactPersonsComponent</text>
</g>
<!-- ContactPersonsComponent&#45;&gt;ContactPersonsModule -->
<g id="edge2" class="edge">
<title>ContactPersonsComponent&#45;&gt;ContactPersonsModule</title>
<path fill="none" stroke="#000000" d="M383.5544,-122.1061C383.5544,-122.1061 383.5544,-140.991 383.5544,-140.991"/>
<polygon fill="#000000" stroke="#000000" points="380.0544,-140.9909 383.5544,-150.991 387.0544,-140.991 380.0544,-140.9909"/>
</g>
<!-- ContactPersonsRoutingModule -->
<g id="node4" class="node">
<title>ContactPersonsRoutingModule</title>
<polygon fill="#8dd3c7" stroke="#000000" points="331.7617,-122 328.7617,-126 307.7617,-126 304.7617,-122 140.2383,-122 140.2383,-86 331.7617,-86 331.7617,-122"/>
<text text-anchor="middle" x="236" y="-99.8" font-family="Times,serif" font-size="14.00" fill="#000000">ContactPersonsRoutingModule</text>
</g>
<!-- ContactPersonsRoutingModule&#45;&gt;ContactPersonsModule -->
<g id="edge3" class="edge">
<title>ContactPersonsRoutingModule&#45;&gt;ContactPersonsModule</title>
<path fill="none" stroke="#000000" d="M298.2795,-122.1061C298.2795,-122.1061 298.2795,-140.991 298.2795,-140.991"/>
<polygon fill="#000000" stroke="#000000" points="294.7795,-140.9909 298.2795,-150.991 301.7795,-140.991 294.7795,-140.9909"/>
</g>
<!-- SharedModule -->
<g id="node5" class="node">
<title>SharedModule</title>
<polygon fill="#8dd3c7" stroke="#000000" points="122.4231,-122 119.4231,-126 98.4231,-126 95.4231,-122 23.5769,-122 23.5769,-86 122.4231,-86 122.4231,-122"/>
<text text-anchor="middle" x="73" y="-99.8" font-family="Times,serif" font-size="14.00" fill="#000000">SharedModule</text>
</g>
<!-- SharedModule&#45;&gt;ContactPersonsModule -->
<g id="edge4" class="edge">
<title>SharedModule&#45;&gt;ContactPersonsModule</title>
<path fill="none" stroke="#000000" d="M73,-122.1061C73,-141.3391 73,-169 73,-169 73,-169 254.5346,-169 254.5346,-169"/>
<polygon fill="#000000" stroke="#000000" points="254.5347,-172.5001 264.5346,-169 254.5346,-165.5001 254.5347,-172.5001"/>
</g>
</g>
</svg>
