<?xml version="1.0" encoding="UTF-8" standalone="no"?>
<!DOCTYPE svg PUBLIC "-//W3C//DTD SVG 1.1//EN"
 "http://www.w3.org/Graphics/SVG/1.1/DTD/svg11.dtd">
<!-- Generated by graphviz version 2.40.1 (20161225.0304)
 -->
<!-- Title: dependencies Pages: 1 -->
<svg width="983pt" height="211pt"
 viewBox="0.00 0.00 983.00 211.00" xmlns="http://www.w3.org/2000/svg" xmlns:xlink="http://www.w3.org/1999/xlink">
<g id="graph0" class="graph" transform="scale(1 1) rotate(0) translate(4 207)">
<title>dependencies</title>
<polygon fill="#ffffff" stroke="transparent" points="-4,4 -4,-207 979,-207 979,4 -4,4"/>
<text text-anchor="start" x="466.5091" y="-42.4" font-family="sans-serif" font-weight="bold" font-size="14.00" fill="#000000">Legend</text>
<polygon fill="#ffffb3" stroke="transparent" points="253.5,-10 253.5,-30 273.5,-30 273.5,-10 253.5,-10"/>
<text text-anchor="start" x="277.129" y="-15.4" font-family="sans-serif" font-size="14.00" fill="#000000"> &#160;Declarations</text>
<polygon fill="#8dd3c7" stroke="transparent" points="366.5,-10 366.5,-30 386.5,-30 386.5,-10 366.5,-10"/>
<text text-anchor="start" x="390.2251" y="-15.4" font-family="sans-serif" font-size="14.00" fill="#000000"> &#160;Module</text>
<polygon fill="#80b1d3" stroke="transparent" points="452.5,-10 452.5,-30 472.5,-30 472.5,-10 452.5,-10"/>
<text text-anchor="start" x="476.2812" y="-15.4" font-family="sans-serif" font-size="14.00" fill="#000000"> &#160;Bootstrap</text>
<polygon fill="#fdb462" stroke="transparent" points="549.5,-10 549.5,-30 569.5,-30 569.5,-10 549.5,-10"/>
<text text-anchor="start" x="573.1732" y="-15.4" font-family="sans-serif" font-size="14.00" fill="#000000"> &#160;Providers</text>
<polygon fill="#fb8072" stroke="transparent" points="645.5,-10 645.5,-30 665.5,-30 665.5,-10 645.5,-10"/>
<text text-anchor="start" x="669.2258" y="-15.4" font-family="sans-serif" font-size="14.00" fill="#000000"> &#160;Exports</text>
<g id="clust1" class="cluster">
<title>cluster_InterviewModule</title>
<polygon fill="none" stroke="#000000" stroke-dasharray="1,5" points="8,-70 8,-195 967,-195 967,-70 8,-70"/>
</g>
<g id="clust2" class="cluster">
<title>cluster_InterviewModule_declarations</title>
<polygon fill="none" stroke="#000000" points="314,-78 314,-130 959,-130 959,-78 314,-78"/>
</g>
<g id="clust7" class="cluster">
<title>cluster_InterviewModule_imports</title>
<polygon fill="none" stroke="#000000" points="16,-78 16,-130 306,-130 306,-78 16,-78"/>
</g>
<!-- AnswerQuestionListComponent -->
<g id="node1" class="node">
<title>AnswerQuestionListComponent</title>
<polygon fill="#ffffb3" stroke="#000000" points="950.6909,-122 753.3091,-122 753.3091,-86 950.6909,-86 950.6909,-122"/>
<text text-anchor="middle" x="852" y="-99.8" font-family="Times,serif" font-size="14.00" fill="#000000">AnswerQuestionListComponent</text>
</g>
<!-- InterviewModule -->
<g id="node5" class="node">
<title>InterviewModule</title>
<polygon fill="#8dd3c7" stroke="#000000" points="510.6882,-187 507.6882,-191 486.6882,-191 483.6882,-187 397.3118,-187 397.3118,-151 510.6882,-151 510.6882,-187"/>
<text text-anchor="middle" x="454" y="-164.8" font-family="Times,serif" font-size="14.00" fill="#000000">InterviewModule</text>
</g>
<!-- AnswerQuestionListComponent&#45;&gt;InterviewModule -->
<g id="edge1" class="edge">
<title>AnswerQuestionListComponent&#45;&gt;InterviewModule</title>
<path fill="none" stroke="#000000" d="M852,-122.2843C852,-143.3211 852,-175 852,-175 852,-175 520.601,-175 520.601,-175"/>
<polygon fill="#000000" stroke="#000000" points="520.6011,-171.5001 510.601,-175 520.601,-178.5001 520.6011,-171.5001"/>
</g>
<!-- AnswersByIdsPipe -->
<g id="node2" class="node">
<title>AnswersByIdsPipe</title>
<polygon fill="#ffffb3" stroke="#000000" points="735.8076,-122 612.1924,-122 612.1924,-86 735.8076,-86 735.8076,-122"/>
<text text-anchor="middle" x="674" y="-99.8" font-family="Times,serif" font-size="14.00" fill="#000000">AnswersByIdsPipe</text>
</g>
<!-- AnswersByIdsPipe&#45;&gt;InterviewModule -->
<g id="edge2" class="edge">
<title>AnswersByIdsPipe&#45;&gt;InterviewModule</title>
<path fill="none" stroke="#000000" d="M674,-122.0225C674,-139.3734 674,-163 674,-163 674,-163 520.6555,-163 520.6555,-163"/>
<polygon fill="#000000" stroke="#000000" points="520.6555,-159.5001 510.6555,-163 520.6554,-166.5001 520.6555,-159.5001"/>
</g>
<!-- InterviewComponent -->
<g id="node3" class="node">
<title>InterviewComponent</title>
<polygon fill="#ffffb3" stroke="#000000" points="594.4706,-122 459.5294,-122 459.5294,-86 594.4706,-86 594.4706,-122"/>
<text text-anchor="middle" x="527" y="-99.8" font-family="Times,serif" font-size="14.00" fill="#000000">InterviewComponent</text>
</g>
<!-- InterviewComponent&#45;&gt;InterviewModule -->
<g id="edge3" class="edge">
<title>InterviewComponent&#45;&gt;InterviewModule</title>
<path fill="none" stroke="#000000" d="M485.0544,-122.1061C485.0544,-122.1061 485.0544,-140.991 485.0544,-140.991"/>
<polygon fill="#000000" stroke="#000000" points="481.5544,-140.9909 485.0544,-150.991 488.5544,-140.991 481.5544,-140.9909"/>
</g>
<!-- QuestionByIdPipe -->
<g id="node4" class="node">
<title>QuestionByIdPipe</title>
<polygon fill="#ffffb3" stroke="#000000" points="441.9328,-122 322.0672,-122 322.0672,-86 441.9328,-86 441.9328,-122"/>
<text text-anchor="middle" x="382" y="-99.8" font-family="Times,serif" font-size="14.00" fill="#000000">QuestionByIdPipe</text>
</g>
<!-- QuestionByIdPipe&#45;&gt;InterviewModule -->
<g id="edge4" class="edge">
<title>QuestionByIdPipe&#45;&gt;InterviewModule</title>
<path fill="none" stroke="#000000" d="M419.561,-122.1061C419.561,-122.1061 419.561,-140.991 419.561,-140.991"/>
<polygon fill="#000000" stroke="#000000" points="416.0611,-140.9909 419.561,-150.991 423.0611,-140.991 416.0611,-140.9909"/>
</g>
<!-- InterviewRoutingModule -->
<g id="node6" class="node">
<title>InterviewRoutingModule</title>
<polygon fill="#8dd3c7" stroke="#000000" points="298.3061,-122 295.3061,-126 274.3061,-126 271.3061,-122 139.6939,-122 139.6939,-86 298.3061,-86 298.3061,-122"/>
<text text-anchor="middle" x="219" y="-99.8" font-family="Times,serif" font-size="14.00" fill="#000000">InterviewRoutingModule</text>
</g>
<!-- InterviewRoutingModule&#45;&gt;InterviewModule -->
<g id="edge5" class="edge">
<title>InterviewRoutingModule&#45;&gt;InterviewModule</title>
<path fill="none" stroke="#000000" d="M219,-122.0225C219,-139.3734 219,-163 219,-163 219,-163 387.1131,-163 387.1131,-163"/>
<polygon fill="#000000" stroke="#000000" points="387.1131,-166.5001 397.1131,-163 387.113,-159.5001 387.1131,-166.5001"/>
</g>
<!-- SharedModule -->
<g id="node7" class="node">
<title>SharedModule</title>
<polygon fill="#8dd3c7" stroke="#000000" points="122.4231,-122 119.4231,-126 98.4231,-126 95.4231,-122 23.5769,-122 23.5769,-86 122.4231,-86 122.4231,-122"/>
<text text-anchor="middle" x="73" y="-99.8" font-family="Times,serif" font-size="14.00" fill="#000000">SharedModule</text>
</g>
<!-- SharedModule&#45;&gt;InterviewModule -->
<g id="edge6" class="edge">
<title>SharedModule&#45;&gt;InterviewModule</title>
<path fill="none" stroke="#000000" d="M73,-122.2843C73,-143.3211 73,-175 73,-175 73,-175 387.3719,-175 387.3719,-175"/>
<polygon fill="#000000" stroke="#000000" points="387.3719,-178.5001 397.3719,-175 387.3718,-171.5001 387.3719,-178.5001"/>
</g>
</g>
</svg>
