<?xml version="1.0" encoding="UTF-8" standalone="no"?>
<!DOCTYPE svg PUBLIC "-//W3C//DTD SVG 1.1//EN"
 "http://www.w3.org/Graphics/SVG/1.1/DTD/svg11.dtd">
<!-- Generated by graphviz version 2.40.1 (20161225.0304)
 -->
<!-- Title: dependencies Pages: 1 -->
<svg width="1614pt" height="211pt"
 viewBox="0.00 0.00 1614.00 211.00" xmlns="http://www.w3.org/2000/svg" xmlns:xlink="http://www.w3.org/1999/xlink">
<g id="graph0" class="graph" transform="scale(1 1) rotate(0) translate(4 207)">
<title>dependencies</title>
<polygon fill="#ffffff" stroke="transparent" points="-4,4 -4,-207 1610,-207 1610,4 -4,4"/>
<text text-anchor="start" x="782.0091" y="-42.4" font-family="sans-serif" font-weight="bold" font-size="14.00" fill="#000000">Legend</text>
<polygon fill="#ffffb3" stroke="transparent" points="569,-10 569,-30 589,-30 589,-10 569,-10"/>
<text text-anchor="start" x="592.629" y="-15.4" font-family="sans-serif" font-size="14.00" fill="#000000"> &#160;Declarations</text>
<polygon fill="#8dd3c7" stroke="transparent" points="682,-10 682,-30 702,-30 702,-10 682,-10"/>
<text text-anchor="start" x="705.7251" y="-15.4" font-family="sans-serif" font-size="14.00" fill="#000000"> &#160;Module</text>
<polygon fill="#80b1d3" stroke="transparent" points="768,-10 768,-30 788,-30 788,-10 768,-10"/>
<text text-anchor="start" x="791.7812" y="-15.4" font-family="sans-serif" font-size="14.00" fill="#000000"> &#160;Bootstrap</text>
<polygon fill="#fdb462" stroke="transparent" points="865,-10 865,-30 885,-30 885,-10 865,-10"/>
<text text-anchor="start" x="888.6732" y="-15.4" font-family="sans-serif" font-size="14.00" fill="#000000"> &#160;Providers</text>
<polygon fill="#fb8072" stroke="transparent" points="961,-10 961,-30 981,-30 981,-10 961,-10"/>
<text text-anchor="start" x="984.7258" y="-15.4" font-family="sans-serif" font-size="14.00" fill="#000000"> &#160;Exports</text>
<g id="clust1" class="cluster">
<title>cluster_AuditOverviewModule</title>
<polygon fill="none" stroke="#000000" stroke-dasharray="1,5" points="8,-70 8,-195 1598,-195 1598,-70 8,-70"/>
</g>
<g id="clust2" class="cluster">
<title>cluster_AuditOverviewModule_declarations</title>
<polygon fill="none" stroke="#000000" points="348,-78 348,-130 1590,-130 1590,-78 348,-78"/>
</g>
<g id="clust10" class="cluster">
<title>cluster_AuditOverviewModule_imports</title>
<polygon fill="none" stroke="#000000" points="16,-78 16,-130 340,-130 340,-78 16,-78"/>
</g>
<!-- AuditInfoComponent -->
<g id="node1" class="node">
<title>AuditInfoComponent</title>
<polygon fill="#ffffb3" stroke="#000000" points="1582.0422,-122 1445.9578,-122 1445.9578,-86 1582.0422,-86 1582.0422,-122"/>
<text text-anchor="middle" x="1514" y="-99.8" font-family="Times,serif" font-size="14.00" fill="#000000">AuditInfoComponent</text>
</g>
<!-- AuditOverviewModule -->
<g id="node8" class="node">
<title>AuditOverviewModule</title>
<polygon fill="#8dd3c7" stroke="#000000" points="904.1317,-187 901.1317,-191 880.1317,-191 877.1317,-187 757.8683,-187 757.8683,-151 904.1317,-151 904.1317,-187"/>
<text text-anchor="middle" x="831" y="-164.8" font-family="Times,serif" font-size="14.00" fill="#000000">AuditOverviewModule</text>
</g>
<!-- AuditInfoComponent&#45;&gt;AuditOverviewModule -->
<g id="edge1" class="edge">
<title>AuditInfoComponent&#45;&gt;AuditOverviewModule</title>
<path fill="none" stroke="#000000" d="M1514,-122.0109C1514,-144.4852 1514,-180 1514,-180 1514,-180 914.4171,-180 914.4171,-180"/>
<polygon fill="#000000" stroke="#000000" points="914.4172,-176.5001 904.4171,-180 914.4171,-183.5001 914.4172,-176.5001"/>
</g>
<!-- AuditOverviewComponent -->
<g id="node2" class="node">
<title>AuditOverviewComponent</title>
<polygon fill="#ffffb3" stroke="#000000" points="1428.4143,-122 1259.5857,-122 1259.5857,-86 1428.4143,-86 1428.4143,-122"/>
<text text-anchor="middle" x="1344" y="-99.8" font-family="Times,serif" font-size="14.00" fill="#000000">AuditOverviewComponent</text>
</g>
<!-- AuditOverviewComponent&#45;&gt;AuditOverviewModule -->
<g id="edge2" class="edge">
<title>AuditOverviewComponent&#45;&gt;AuditOverviewModule</title>
<path fill="none" stroke="#000000" d="M1344,-122.1289C1344,-142.5724 1344,-173 1344,-173 1344,-173 914.2278,-173 914.2278,-173"/>
<polygon fill="#000000" stroke="#000000" points="914.2278,-169.5001 904.2278,-173 914.2278,-176.5001 914.2278,-169.5001"/>
</g>
<!-- FilterInterviewsPipe -->
<g id="node3" class="node">
<title>FilterInterviewsPipe</title>
<polygon fill="#ffffb3" stroke="#000000" points="1242.3005,-122 1111.6995,-122 1111.6995,-86 1242.3005,-86 1242.3005,-122"/>
<text text-anchor="middle" x="1177" y="-99.8" font-family="Times,serif" font-size="14.00" fill="#000000">FilterInterviewsPipe</text>
</g>
<!-- FilterInterviewsPipe&#45;&gt;AuditOverviewModule -->
<g id="edge3" class="edge">
<title>FilterInterviewsPipe&#45;&gt;AuditOverviewModule</title>
<path fill="none" stroke="#000000" d="M1177,-122.2667C1177,-140.5552 1177,-166 1177,-166 1177,-166 914.3777,-166 914.3777,-166"/>
<polygon fill="#000000" stroke="#000000" points="914.3777,-162.5001 904.3777,-166 914.3777,-169.5001 914.3777,-162.5001"/>
</g>
<!-- InterviewCardComponent -->
<g id="node4" class="node">
<title>InterviewCardComponent</title>
<polygon fill="#ffffb3" stroke="#000000" points="1094.1825,-122 931.8175,-122 931.8175,-86 1094.1825,-86 1094.1825,-122"/>
<text text-anchor="middle" x="1013" y="-99.8" font-family="Times,serif" font-size="14.00" fill="#000000">InterviewCardComponent</text>
</g>
<!-- InterviewCardComponent&#45;&gt;AuditOverviewModule -->
<g id="edge4" class="edge">
<title>InterviewCardComponent&#45;&gt;AuditOverviewModule</title>
<path fill="none" stroke="#000000" d="M1013,-122.0091C1013,-138.0494 1013,-159 1013,-159 1013,-159 914.2397,-159 914.2397,-159"/>
<polygon fill="#000000" stroke="#000000" points="914.2397,-155.5001 904.2397,-159 914.2396,-162.5001 914.2397,-155.5001"/>
</g>
<!-- InterviewFormComponent -->
<g id="node5" class="node">
<title>InterviewFormComponent</title>
<polygon fill="#ffffb3" stroke="#000000" points="913.8047,-122 748.1953,-122 748.1953,-86 913.8047,-86 913.8047,-122"/>
<text text-anchor="middle" x="831" y="-99.8" font-family="Times,serif" font-size="14.00" fill="#000000">InterviewFormComponent</text>
</g>
<!-- InterviewFormComponent&#45;&gt;AuditOverviewModule -->
<g id="edge5" class="edge">
<title>InterviewFormComponent&#45;&gt;AuditOverviewModule</title>
<path fill="none" stroke="#000000" d="M831,-122.1061C831,-122.1061 831,-140.991 831,-140.991"/>
<polygon fill="#000000" stroke="#000000" points="827.5001,-140.9909 831,-150.991 834.5001,-140.991 827.5001,-140.9909"/>
</g>
<!-- InterviewListComponent -->
<g id="node6" class="node">
<title>InterviewListComponent</title>
<polygon fill="#ffffb3" stroke="#000000" points="730.2492,-122 573.7508,-122 573.7508,-86 730.2492,-86 730.2492,-122"/>
<text text-anchor="middle" x="652" y="-99.8" font-family="Times,serif" font-size="14.00" fill="#000000">InterviewListComponent</text>
</g>
<!-- InterviewListComponent&#45;&gt;AuditOverviewModule -->
<g id="edge6" class="edge">
<title>InterviewListComponent&#45;&gt;AuditOverviewModule</title>
<path fill="none" stroke="#000000" d="M652,-122.0091C652,-138.0494 652,-159 652,-159 652,-159 747.6774,-159 747.6774,-159"/>
<polygon fill="#000000" stroke="#000000" points="747.6774,-162.5001 757.6774,-159 747.6773,-155.5001 747.6774,-162.5001"/>
</g>
<!-- NewInterviewDialogComponent -->
<g id="node7" class="node">
<title>NewInterviewDialogComponent</title>
<polygon fill="#ffffb3" stroke="#000000" points="555.5014,-122 356.4986,-122 356.4986,-86 555.5014,-86 555.5014,-122"/>
<text text-anchor="middle" x="456" y="-99.8" font-family="Times,serif" font-size="14.00" fill="#000000">NewInterviewDialogComponent</text>
</g>
<!-- NewInterviewDialogComponent&#45;&gt;AuditOverviewModule -->
<g id="edge7" class="edge">
<title>NewInterviewDialogComponent&#45;&gt;AuditOverviewModule</title>
<path fill="none" stroke="#000000" d="M456,-122.2667C456,-140.5552 456,-166 456,-166 456,-166 747.806,-166 747.806,-166"/>
<polygon fill="#000000" stroke="#000000" points="747.806,-169.5001 757.806,-166 747.806,-162.5001 747.806,-169.5001"/>
</g>
<!-- AuditOverviewRoutingModule -->
<g id="node9" class="node">
<title>AuditOverviewRoutingModule</title>
<polygon fill="#8dd3c7" stroke="#000000" points="331.7492,-122 328.7492,-126 307.7492,-126 304.7492,-122 140.2508,-122 140.2508,-86 331.7492,-86 331.7492,-122"/>
<text text-anchor="middle" x="236" y="-99.8" font-family="Times,serif" font-size="14.00" fill="#000000">AuditOverviewRoutingModule</text>
</g>
<!-- AuditOverviewRoutingModule&#45;&gt;AuditOverviewModule -->
<g id="edge8" class="edge">
<title>AuditOverviewRoutingModule&#45;&gt;AuditOverviewModule</title>
<path fill="none" stroke="#000000" d="M236,-122.1289C236,-142.5724 236,-173 236,-173 236,-173 747.7432,-173 747.7432,-173"/>
<polygon fill="#000000" stroke="#000000" points="747.7432,-176.5001 757.7432,-173 747.7431,-169.5001 747.7432,-176.5001"/>
</g>
<!-- SharedModule -->
<g id="node10" class="node">
<title>SharedModule</title>
<polygon fill="#8dd3c7" stroke="#000000" points="122.4231,-122 119.4231,-126 98.4231,-126 95.4231,-122 23.5769,-122 23.5769,-86 122.4231,-86 122.4231,-122"/>
<text text-anchor="middle" x="73" y="-99.8" font-family="Times,serif" font-size="14.00" fill="#000000">SharedModule</text>
</g>
<!-- SharedModule&#45;&gt;AuditOverviewModule -->
<g id="edge9" class="edge">
<title>SharedModule&#45;&gt;AuditOverviewModule</title>
<path fill="none" stroke="#000000" d="M73,-122.0109C73,-144.4852 73,-180 73,-180 73,-180 747.631,-180 747.631,-180"/>
<polygon fill="#000000" stroke="#000000" points="747.6311,-183.5001 757.631,-180 747.631,-176.5001 747.6311,-183.5001"/>
</g>
</g>
</svg>
