<?xml version="1.0" encoding="UTF-8" standalone="no"?>
<!DOCTYPE svg PUBLIC "-//W3C//DTD SVG 1.1//EN"
 "http://www.w3.org/Graphics/SVG/1.1/DTD/svg11.dtd">
<!-- Generated by graphviz version 2.40.1 (20161225.0304)
 -->
<!-- Title: dependencies Pages: 1 -->
<svg width="2034pt" height="284pt"
 viewBox="0.00 0.00 2034.00 284.00" xmlns="http://www.w3.org/2000/svg" xmlns:xlink="http://www.w3.org/1999/xlink">
<g id="graph0" class="graph" transform="scale(1 1) rotate(0) translate(4 280)">
<title>dependencies</title>
<polygon fill="#ffffff" stroke="transparent" points="-4,4 -4,-280 2030,-280 2030,4 -4,4"/>
<text text-anchor="start" x="992.0091" y="-42.4" font-family="sans-serif" font-weight="bold" font-size="14.00" fill="#000000">Legend</text>
<polygon fill="#ffffb3" stroke="transparent" points="779,-10 779,-30 799,-30 799,-10 779,-10"/>
<text text-anchor="start" x="802.629" y="-15.4" font-family="sans-serif" font-size="14.00" fill="#000000"> &#160;Declarations</text>
<polygon fill="#8dd3c7" stroke="transparent" points="892,-10 892,-30 912,-30 912,-10 892,-10"/>
<text text-anchor="start" x="915.7251" y="-15.4" font-family="sans-serif" font-size="14.00" fill="#000000"> &#160;Module</text>
<polygon fill="#80b1d3" stroke="transparent" points="978,-10 978,-30 998,-30 998,-10 978,-10"/>
<text text-anchor="start" x="1001.7812" y="-15.4" font-family="sans-serif" font-size="14.00" fill="#000000"> &#160;Bootstrap</text>
<polygon fill="#fdb462" stroke="transparent" points="1075,-10 1075,-30 1095,-30 1095,-10 1075,-10"/>
<text text-anchor="start" x="1098.6732" y="-15.4" font-family="sans-serif" font-size="14.00" fill="#000000"> &#160;Providers</text>
<polygon fill="#fb8072" stroke="transparent" points="1171,-10 1171,-30 1191,-30 1191,-10 1171,-10"/>
<text text-anchor="start" x="1194.7258" y="-15.4" font-family="sans-serif" font-size="14.00" fill="#000000"> &#160;Exports</text>
<g id="clust1" class="cluster">
<title>cluster_AppModule</title>
<polygon fill="none" stroke="#000000" stroke-dasharray="1,5" points="8,-70 8,-268 2018,-268 2018,-70 8,-70"/>
</g>
<g id="clust2" class="cluster">
<title>cluster_AppModule_declarations</title>
<polygon fill="none" stroke="#000000" points="308,-78 308,-130 2010,-130 2010,-78 308,-78"/>
</g>
<g id="clust13" class="cluster">
<title>cluster_AppModule_imports</title>
<polygon fill="none" stroke="#000000" points="16,-78 16,-130 300,-130 300,-78 16,-78"/>
</g>
<g id="clust15" class="cluster">
<title>cluster_AppModule_bootstrap</title>
<polygon fill="none" stroke="#000000" points="944,-208 944,-260 1068,-260 1068,-208 944,-208"/>
</g>
<!-- ActionListenerDirective -->
<g id="node1" class="node">
<title>ActionListenerDirective</title>
<polygon fill="#ffffb3" stroke="#000000" points="2002.0534,-122 1849.9466,-122 1849.9466,-86 2002.0534,-86 2002.0534,-122"/>
<text text-anchor="middle" x="1926" y="-99.8" font-family="Times,serif" font-size="14.00" fill="#000000">ActionListenerDirective</text>
</g>
<!-- AppModule -->
<g id="node11" class="node">
<title>AppModule</title>
<polygon fill="#8dd3c7" stroke="#000000" points="1047.6571,-187 1044.6571,-191 1023.6571,-191 1020.6571,-187 964.3429,-187 964.3429,-151 1047.6571,-151 1047.6571,-187"/>
<text text-anchor="middle" x="1006" y="-164.8" font-family="Times,serif" font-size="14.00" fill="#000000">AppModule</text>
</g>
<!-- ActionListenerDirective&#45;&gt;AppModule -->
<g id="edge1" class="edge">
<title>ActionListenerDirective&#45;&gt;AppModule</title>
<path fill="none" stroke="#000000" d="M1926,-122.2479C1926,-145.0179 1926,-181 1926,-181 1926,-181 1057.9211,-181 1057.9211,-181"/>
<polygon fill="#000000" stroke="#000000" points="1057.9212,-177.5001 1047.9211,-181 1057.9211,-184.5001 1057.9212,-177.5001"/>
</g>
<!-- AddAuditDialogComponent -->
<g id="node2" class="node">
<title>AddAuditDialogComponent</title>
<polygon fill="#ffffb3" stroke="#000000" points="1831.9297,-122 1656.0703,-122 1656.0703,-86 1831.9297,-86 1831.9297,-122"/>
<text text-anchor="middle" x="1744" y="-99.8" font-family="Times,serif" font-size="14.00" fill="#000000">AddAuditDialogComponent</text>
</g>
<!-- AddAuditDialogComponent&#45;&gt;AppModule -->
<g id="edge2" class="edge">
<title>AddAuditDialogComponent&#45;&gt;AppModule</title>
<path fill="none" stroke="#000000" d="M1744,-122.2843C1744,-143.3211 1744,-175 1744,-175 1744,-175 1057.7926,-175 1057.7926,-175"/>
<polygon fill="#000000" stroke="#000000" points="1057.7926,-171.5001 1047.7926,-175 1057.7926,-178.5001 1057.7926,-171.5001"/>
</g>
<!-- AppComponent -->
<g id="node3" class="node">
<title>AppComponent</title>
<polygon fill="#ffffb3" stroke="#000000" points="1638.9399,-122 1533.0601,-122 1533.0601,-86 1638.9399,-86 1638.9399,-122"/>
<text text-anchor="middle" x="1586" y="-99.8" font-family="Times,serif" font-size="14.00" fill="#000000">AppComponent</text>
</g>
<!-- AppComponent&#45;&gt;AppModule -->
<g id="edge3" class="edge">
<title>AppComponent&#45;&gt;AppModule</title>
<path fill="none" stroke="#000000" d="M1586,-122.1061C1586,-141.3391 1586,-169 1586,-169 1586,-169 1057.7122,-169 1057.7122,-169"/>
<polygon fill="#000000" stroke="#000000" points="1057.7122,-165.5001 1047.7122,-169 1057.7121,-172.5001 1057.7122,-165.5001"/>
</g>
<!-- AuditCardComponent -->
<g id="node4" class="node">
<title>AuditCardComponent</title>
<polygon fill="#ffffb3" stroke="#000000" points="1515.4327,-122 1374.5673,-122 1374.5673,-86 1515.4327,-86 1515.4327,-122"/>
<text text-anchor="middle" x="1445" y="-99.8" font-family="Times,serif" font-size="14.00" fill="#000000">AuditCardComponent</text>
</g>
<!-- AuditCardComponent&#45;&gt;AppModule -->
<g id="edge4" class="edge">
<title>AuditCardComponent&#45;&gt;AppModule</title>
<path fill="none" stroke="#000000" d="M1445,-122.0225C1445,-139.3734 1445,-163 1445,-163 1445,-163 1057.6958,-163 1057.6958,-163"/>
<polygon fill="#000000" stroke="#000000" points="1057.6959,-159.5001 1047.6958,-163 1057.6958,-166.5001 1057.6959,-159.5001"/>
</g>
<!-- AuditDataFormComponent -->
<g id="node5" class="node">
<title>AuditDataFormComponent</title>
<polygon fill="#ffffb3" stroke="#000000" points="1356.9804,-122 1187.0196,-122 1187.0196,-86 1356.9804,-86 1356.9804,-122"/>
<text text-anchor="middle" x="1272" y="-99.8" font-family="Times,serif" font-size="14.00" fill="#000000">AuditDataFormComponent</text>
</g>
<!-- AuditDataFormComponent&#45;&gt;AppModule -->
<g id="edge5" class="edge">
<title>AuditDataFormComponent&#45;&gt;AppModule</title>
<path fill="none" stroke="#000000" d="M1272,-122.2396C1272,-137.5706 1272,-157 1272,-157 1272,-157 1057.8551,-157 1057.8551,-157"/>
<polygon fill="#000000" stroke="#000000" points="1057.8552,-153.5001 1047.8551,-157 1057.8551,-160.5001 1057.8552,-153.5001"/>
</g>
<!-- AuditListComponent -->
<g id="node6" class="node">
<title>AuditListComponent</title>
<polygon fill="#ffffb3" stroke="#000000" points="1169.4986,-122 1034.5014,-122 1034.5014,-86 1169.4986,-86 1169.4986,-122"/>
<text text-anchor="middle" x="1102" y="-99.8" font-family="Times,serif" font-size="14.00" fill="#000000">AuditListComponent</text>
</g>
<!-- AuditListComponent&#45;&gt;AppModule -->
<g id="edge6" class="edge">
<title>AuditListComponent&#45;&gt;AppModule</title>
<path fill="none" stroke="#000000" d="M1041.1645,-122.1061C1041.1645,-122.1061 1041.1645,-140.991 1041.1645,-140.991"/>
<polygon fill="#000000" stroke="#000000" points="1037.6645,-140.9909 1041.1645,-150.991 1044.6645,-140.991 1037.6645,-140.9909"/>
</g>
<!-- ConfirmDiscardDialogComponent -->
<g id="node7" class="node">
<title>ConfirmDiscardDialogComponent</title>
<polygon fill="#ffffb3" stroke="#000000" points="1016.4058,-122 805.5942,-122 805.5942,-86 1016.4058,-86 1016.4058,-122"/>
<text text-anchor="middle" x="911" y="-99.8" font-family="Times,serif" font-size="14.00" fill="#000000">ConfirmDiscardDialogComponent</text>
</g>
<!-- ConfirmDiscardDialogComponent&#45;&gt;AppModule -->
<g id="edge7" class="edge">
<title>ConfirmDiscardDialogComponent&#45;&gt;AppModule</title>
<path fill="none" stroke="#000000" d="M990.1873,-122.1061C990.1873,-122.1061 990.1873,-140.991 990.1873,-140.991"/>
<polygon fill="#000000" stroke="#000000" points="986.6873,-140.9909 990.1873,-150.991 993.6873,-140.991 986.6873,-140.9909"/>
</g>
<!-- EditAuditDialogComponent -->
<g id="node8" class="node">
<title>EditAuditDialogComponent</title>
<polygon fill="#ffffb3" stroke="#000000" points="787.1567,-122 612.8433,-122 612.8433,-86 787.1567,-86 787.1567,-122"/>
<text text-anchor="middle" x="700" y="-99.8" font-family="Times,serif" font-size="14.00" fill="#000000">EditAuditDialogComponent</text>
</g>
<!-- EditAuditDialogComponent&#45;&gt;AppModule -->
<g id="edge8" class="edge">
<title>EditAuditDialogComponent&#45;&gt;AppModule</title>
<path fill="none" stroke="#000000" d="M700,-122.2396C700,-137.5706 700,-157 700,-157 700,-157 954.0936,-157 954.0936,-157"/>
<polygon fill="#000000" stroke="#000000" points="954.0937,-160.5001 964.0936,-157 954.0936,-153.5001 954.0937,-160.5001"/>
</g>
<!-- NavbarComponent -->
<g id="node9" class="node">
<title>NavbarComponent</title>
<polygon fill="#ffffb3" stroke="#000000" points="594.0297,-122 471.9703,-122 471.9703,-86 594.0297,-86 594.0297,-122"/>
<text text-anchor="middle" x="533" y="-99.8" font-family="Times,serif" font-size="14.00" fill="#000000">NavbarComponent</text>
</g>
<!-- NavbarComponent&#45;&gt;AppModule -->
<g id="edge9" class="edge">
<title>NavbarComponent&#45;&gt;AppModule</title>
<path fill="none" stroke="#000000" d="M533,-122.0225C533,-139.3734 533,-163 533,-163 533,-163 954.0244,-163 954.0244,-163"/>
<polygon fill="#000000" stroke="#000000" points="954.0244,-166.5001 964.0244,-163 954.0244,-159.5001 954.0244,-166.5001"/>
</g>
<!-- NotFoundComponent -->
<g id="node10" class="node">
<title>NotFoundComponent</title>
<polygon fill="#ffffb3" stroke="#000000" points="454.1122,-122 315.8878,-122 315.8878,-86 454.1122,-86 454.1122,-122"/>
<text text-anchor="middle" x="385" y="-99.8" font-family="Times,serif" font-size="14.00" fill="#000000">NotFoundComponent</text>
</g>
<!-- NotFoundComponent&#45;&gt;AppModule -->
<g id="edge10" class="edge">
<title>NotFoundComponent&#45;&gt;AppModule</title>
<path fill="none" stroke="#000000" d="M385,-122.1061C385,-141.3391 385,-169 385,-169 385,-169 954.2902,-169 954.2902,-169"/>
<polygon fill="#000000" stroke="#000000" points="954.2902,-172.5001 964.2902,-169 954.2901,-165.5001 954.2902,-172.5001"/>
</g>
<!-- AppComponent  -->
<g id="node14" class="node">
<title>AppComponent </title>
<polygon fill="#80b1d3" stroke="#000000" points="1060.439,-252 951.561,-252 951.561,-216 1060.439,-216 1060.439,-252"/>
<text text-anchor="middle" x="1006" y="-229.8" font-family="Times,serif" font-size="14.00" fill="#000000">AppComponent </text>
</g>
<!-- AppModule&#45;&gt;AppComponent  -->
<g id="edge13" class="edge">
<title>AppModule&#45;&gt;AppComponent </title>
<path fill="none" stroke="#000000" stroke-dasharray="1,5" d="M1006,-187.1061C1006,-187.1061 1006,-205.991 1006,-205.991"/>
<polygon fill="#000000" stroke="#000000" points="1002.5001,-205.9909 1006,-215.991 1009.5001,-205.991 1002.5001,-205.9909"/>
</g>
<!-- AppNebularModule -->
<g id="node12" class="node">
<title>AppNebularModule</title>
<polygon fill="#8dd3c7" stroke="#000000" points="292.2437,-122 289.2437,-126 268.2437,-126 265.2437,-122 163.7563,-122 163.7563,-86 292.2437,-86 292.2437,-122"/>
<text text-anchor="middle" x="228" y="-99.8" font-family="Times,serif" font-size="14.00" fill="#000000">AppNebularModule</text>
</g>
<!-- AppNebularModule&#45;&gt;AppModule -->
<g id="edge11" class="edge">
<title>AppNebularModule&#45;&gt;AppModule</title>
<path fill="none" stroke="#000000" d="M228,-122.2843C228,-143.3211 228,-175 228,-175 228,-175 954.1713,-175 954.1713,-175"/>
<polygon fill="#000000" stroke="#000000" points="954.1714,-178.5001 964.1713,-175 954.1713,-171.5001 954.1714,-178.5001"/>
</g>
<!-- AppRouterModule -->
<g id="node13" class="node">
<title>AppRouterModule</title>
<polygon fill="#8dd3c7" stroke="#000000" points="145.759,-122 142.759,-126 121.759,-126 118.759,-122 24.241,-122 24.241,-86 145.759,-86 145.759,-122"/>
<text text-anchor="middle" x="85" y="-99.8" font-family="Times,serif" font-size="14.00" fill="#000000">AppRouterModule</text>
</g>
<!-- AppRouterModule&#45;&gt;AppModule -->
<g id="edge12" class="edge">
<title>AppRouterModule&#45;&gt;AppModule</title>
<path fill="none" stroke="#000000" d="M85,-122.2479C85,-145.0179 85,-181 85,-181 85,-181 954.3358,-181 954.3358,-181"/>
<polygon fill="#000000" stroke="#000000" points="954.3358,-184.5001 964.3358,-181 954.3358,-177.5001 954.3358,-184.5001"/>
</g>
</g>
</svg>
