<?xml version="1.0" encoding="UTF-8" standalone="no"?>
<!DOCTYPE svg PUBLIC "-//W3C//DTD SVG 1.1//EN"
 "http://www.w3.org/Graphics/SVG/1.1/DTD/svg11.dtd">
<!-- Generated by graphviz version 2.40.1 (20161225.0304)
 -->
<!-- Title: dependencies Pages: 1 -->
<svg width="774pt" height="211pt"
 viewBox="0.00 0.00 774.00 211.00" xmlns="http://www.w3.org/2000/svg" xmlns:xlink="http://www.w3.org/1999/xlink">
<g id="graph0" class="graph" transform="scale(1 1) rotate(0) translate(4 207)">
<title>dependencies</title>
<polygon fill="#ffffff" stroke="transparent" points="-4,4 -4,-207 770,-207 770,4 -4,4"/>
<text text-anchor="start" x="362.0091" y="-42.4" font-family="sans-serif" font-weight="bold" font-size="14.00" fill="#000000">Legend</text>
<polygon fill="#ffffb3" stroke="transparent" points="149,-10 149,-30 169,-30 169,-10 149,-10"/>
<text text-anchor="start" x="172.629" y="-15.4" font-family="sans-serif" font-size="14.00" fill="#000000"> &#160;Declarations</text>
<polygon fill="#8dd3c7" stroke="transparent" points="262,-10 262,-30 282,-30 282,-10 262,-10"/>
<text text-anchor="start" x="285.7251" y="-15.4" font-family="sans-serif" font-size="14.00" fill="#000000"> &#160;Module</text>
<polygon fill="#80b1d3" stroke="transparent" points="348,-10 348,-30 368,-30 368,-10 348,-10"/>
<text text-anchor="start" x="371.7812" y="-15.4" font-family="sans-serif" font-size="14.00" fill="#000000"> &#160;Bootstrap</text>
<polygon fill="#fdb462" stroke="transparent" points="445,-10 445,-30 465,-30 465,-10 445,-10"/>
<text text-anchor="start" x="468.6732" y="-15.4" font-family="sans-serif" font-size="14.00" fill="#000000"> &#160;Providers</text>
<polygon fill="#fb8072" stroke="transparent" points="541,-10 541,-30 561,-30 561,-10 541,-10"/>
<text text-anchor="start" x="564.7258" y="-15.4" font-family="sans-serif" font-size="14.00" fill="#000000"> &#160;Exports</text>
<g id="clust1" class="cluster">
<title>cluster_ContactPeopleModule</title>
<polygon fill="none" stroke="#000000" stroke-dasharray="1,5" points="8,-70 8,-195 758,-195 758,-70 8,-70"/>
</g>
<g id="clust2" class="cluster">
<title>cluster_ContactPeopleModule_declarations</title>
<polygon fill="none" stroke="#000000" points="342,-78 342,-130 750,-130 750,-78 342,-78"/>
</g>
<g id="clust5" class="cluster">
<title>cluster_ContactPeopleModule_imports</title>
<polygon fill="none" stroke="#000000" points="16,-78 16,-130 334,-130 334,-78 16,-78"/>
</g>
<!-- ContactPeopleListComponent -->
<g id="node1" class="node">
<title>ContactPeopleListComponent</title>
<polygon fill="#ffffb3" stroke="#000000" points="742.2604,-122 557.7396,-122 557.7396,-86 742.2604,-86 742.2604,-122"/>
<text text-anchor="middle" x="650" y="-99.8" font-family="Times,serif" font-size="14.00" fill="#000000">ContactPeopleListComponent</text>
</g>
<!-- ContactPeopleModule -->
<g id="node3" class="node">
<title>ContactPeopleModule</title>
<polygon fill="#8dd3c7" stroke="#000000" points="409.6993,-187 406.6993,-191 385.6993,-191 382.6993,-187 268.3007,-187 268.3007,-151 409.6993,-151 409.6993,-187"/>
<text text-anchor="middle" x="339" y="-164.8" font-family="Times,serif" font-size="14.00" fill="#000000">ContactPeopleModule</text>
</g>
<!-- ContactPeopleListComponent&#45;&gt;ContactPeopleModule -->
<g id="edge1" class="edge">
<title>ContactPeopleListComponent&#45;&gt;ContactPeopleModule</title>
<path fill="none" stroke="#000000" d="M650,-122.1061C650,-141.3391 650,-169 650,-169 650,-169 419.9599,-169 419.9599,-169"/>
<polygon fill="#000000" stroke="#000000" points="419.9599,-165.5001 409.9599,-169 419.9598,-172.5001 419.9599,-165.5001"/>
</g>
<!-- ContactPersonCardComponent -->
<g id="node2" class="node">
<title>ContactPersonCardComponent</title>
<polygon fill="#ffffb3" stroke="#000000" points="540.1937,-122 349.8063,-122 349.8063,-86 540.1937,-86 540.1937,-122"/>
<text text-anchor="middle" x="445" y="-99.8" font-family="Times,serif" font-size="14.00" fill="#000000">ContactPersonCardComponent</text>
</g>
<!-- ContactPersonCardComponent&#45;&gt;ContactPeopleModule -->
<g id="edge2" class="edge">
<title>ContactPersonCardComponent&#45;&gt;ContactPeopleModule</title>
<path fill="none" stroke="#000000" d="M379.7514,-122.1061C379.7514,-122.1061 379.7514,-140.991 379.7514,-140.991"/>
<polygon fill="#000000" stroke="#000000" points="376.2515,-140.9909 379.7514,-150.991 383.2515,-140.991 376.2515,-140.9909"/>
</g>
<!-- ContactPeopleRoutingModule -->
<g id="node4" class="node">
<title>ContactPeopleRoutingModule</title>
<polygon fill="#8dd3c7" stroke="#000000" points="326.3173,-122 323.3173,-126 302.3173,-126 299.3173,-122 139.6827,-122 139.6827,-86 326.3173,-86 326.3173,-122"/>
<text text-anchor="middle" x="233" y="-99.8" font-family="Times,serif" font-size="14.00" fill="#000000">ContactPeopleRoutingModule</text>
</g>
<!-- ContactPeopleRoutingModule&#45;&gt;ContactPeopleModule -->
<g id="edge3" class="edge">
<title>ContactPeopleRoutingModule&#45;&gt;ContactPeopleModule</title>
<path fill="none" stroke="#000000" d="M297.2795,-122.1061C297.2795,-122.1061 297.2795,-140.991 297.2795,-140.991"/>
<polygon fill="#000000" stroke="#000000" points="293.7795,-140.9909 297.2795,-150.991 300.7795,-140.991 293.7795,-140.9909"/>
</g>
<!-- SharedModule -->
<g id="node5" class="node">
<title>SharedModule</title>
<polygon fill="#8dd3c7" stroke="#000000" points="122.4231,-122 119.4231,-126 98.4231,-126 95.4231,-122 23.5769,-122 23.5769,-86 122.4231,-86 122.4231,-122"/>
<text text-anchor="middle" x="73" y="-99.8" font-family="Times,serif" font-size="14.00" fill="#000000">SharedModule</text>
</g>
<!-- SharedModule&#45;&gt;ContactPeopleModule -->
<g id="edge4" class="edge">
<title>SharedModule&#45;&gt;ContactPeopleModule</title>
<path fill="none" stroke="#000000" d="M73,-122.1061C73,-141.3391 73,-169 73,-169 73,-169 258.0663,-169 258.0663,-169"/>
<polygon fill="#000000" stroke="#000000" points="258.0663,-172.5001 268.0663,-169 258.0663,-165.5001 258.0663,-172.5001"/>
</g>
</g>
</svg>
