<?xml version="1.0" encoding="UTF-8" standalone="no"?>
<!DOCTYPE svg PUBLIC "-//W3C//DTD SVG 1.1//EN"
 "http://www.w3.org/Graphics/SVG/1.1/DTD/svg11.dtd">
<!-- Generated by graphviz version 2.40.1 (20161225.0304)
 -->
<!-- Title: dependencies Pages: 1 -->
<svg width="647pt" height="211pt"
 viewBox="0.00 0.00 647.00 211.00" xmlns="http://www.w3.org/2000/svg" xmlns:xlink="http://www.w3.org/1999/xlink">
<g id="graph0" class="graph" transform="scale(1 1) rotate(0) translate(4 207)">
<title>dependencies</title>
<polygon fill="#ffffff" stroke="transparent" points="-4,4 -4,-207 643,-207 643,4 -4,4"/>
<text text-anchor="start" x="298.5091" y="-42.4" font-family="sans-serif" font-weight="bold" font-size="14.00" fill="#000000">Legend</text>
<polygon fill="#ffffb3" stroke="transparent" points="85.5,-10 85.5,-30 105.5,-30 105.5,-10 85.5,-10"/>
<text text-anchor="start" x="109.129" y="-15.4" font-family="sans-serif" font-size="14.00" fill="#000000"> &#160;Declarations</text>
<polygon fill="#8dd3c7" stroke="transparent" points="198.5,-10 198.5,-30 218.5,-30 218.5,-10 198.5,-10"/>
<text text-anchor="start" x="222.2251" y="-15.4" font-family="sans-serif" font-size="14.00" fill="#000000"> &#160;Module</text>
<polygon fill="#80b1d3" stroke="transparent" points="284.5,-10 284.5,-30 304.5,-30 304.5,-10 284.5,-10"/>
<text text-anchor="start" x="308.2812" y="-15.4" font-family="sans-serif" font-size="14.00" fill="#000000"> &#160;Bootstrap</text>
<polygon fill="#fdb462" stroke="transparent" points="381.5,-10 381.5,-30 401.5,-30 401.5,-10 381.5,-10"/>
<text text-anchor="start" x="405.1732" y="-15.4" font-family="sans-serif" font-size="14.00" fill="#000000"> &#160;Providers</text>
<polygon fill="#fb8072" stroke="transparent" points="477.5,-10 477.5,-30 497.5,-30 497.5,-10 477.5,-10"/>
<text text-anchor="start" x="501.2258" y="-15.4" font-family="sans-serif" font-size="14.00" fill="#000000"> &#160;Exports</text>
<g id="clust1" class="cluster">
<title>cluster_AuditListModule</title>
<polygon fill="none" stroke="#000000" stroke-dasharray="1,5" points="8,-70 8,-195 631,-195 631,-70 8,-70"/>
</g>
<g id="clust2" class="cluster">
<title>cluster_AuditListModule_declarations</title>
<polygon fill="none" stroke="#000000" points="314,-78 314,-130 623,-130 623,-78 314,-78"/>
</g>
<g id="clust5" class="cluster">
<title>cluster_AuditListModule_imports</title>
<polygon fill="none" stroke="#000000" points="16,-78 16,-130 306,-130 306,-78 16,-78"/>
</g>
<!-- AuditCardComponent -->
<g id="node1" class="node">
<title>AuditCardComponent</title>
<polygon fill="#ffffb3" stroke="#000000" points="615.4327,-122 474.5673,-122 474.5673,-86 615.4327,-86 615.4327,-122"/>
<text text-anchor="middle" x="545" y="-99.8" font-family="Times,serif" font-size="14.00" fill="#000000">AuditCardComponent</text>
</g>
<!-- AuditListModule -->
<g id="node3" class="node">
<title>AuditListModule</title>
<polygon fill="#8dd3c7" stroke="#000000" points="360.7162,-187 357.7162,-191 336.7162,-191 333.7162,-187 247.2838,-187 247.2838,-151 360.7162,-151 360.7162,-187"/>
<text text-anchor="middle" x="304" y="-164.8" font-family="Times,serif" font-size="14.00" fill="#000000">AuditListModule</text>
</g>
<!-- AuditCardComponent&#45;&gt;AuditListModule -->
<g id="edge1" class="edge">
<title>AuditCardComponent&#45;&gt;AuditListModule</title>
<path fill="none" stroke="#000000" d="M545,-122.1061C545,-141.3391 545,-169 545,-169 545,-169 370.8085,-169 370.8085,-169"/>
<polygon fill="#000000" stroke="#000000" points="370.8085,-165.5001 360.8085,-169 370.8084,-172.5001 370.8085,-165.5001"/>
</g>
<!-- AuditListComponent -->
<g id="node2" class="node">
<title>AuditListComponent</title>
<polygon fill="#ffffb3" stroke="#000000" points="456.4986,-122 321.5014,-122 321.5014,-86 456.4986,-86 456.4986,-122"/>
<text text-anchor="middle" x="389" y="-99.8" font-family="Times,serif" font-size="14.00" fill="#000000">AuditListComponent</text>
</g>
<!-- AuditListComponent&#45;&gt;AuditListModule -->
<g id="edge2" class="edge">
<title>AuditListComponent&#45;&gt;AuditListModule</title>
<path fill="none" stroke="#000000" d="M341.0544,-122.1061C341.0544,-122.1061 341.0544,-140.991 341.0544,-140.991"/>
<polygon fill="#000000" stroke="#000000" points="337.5544,-140.9909 341.0544,-150.991 344.5544,-140.991 337.5544,-140.9909"/>
</g>
<!-- AuditListRoutingModule -->
<g id="node4" class="node">
<title>AuditListRoutingModule</title>
<polygon fill="#8dd3c7" stroke="#000000" points="298.3342,-122 295.3342,-126 274.3342,-126 271.3342,-122 139.6658,-122 139.6658,-86 298.3342,-86 298.3342,-122"/>
<text text-anchor="middle" x="219" y="-99.8" font-family="Times,serif" font-size="14.00" fill="#000000">AuditListRoutingModule</text>
</g>
<!-- AuditListRoutingModule&#45;&gt;AuditListModule -->
<g id="edge3" class="edge">
<title>AuditListRoutingModule&#45;&gt;AuditListModule</title>
<path fill="none" stroke="#000000" d="M272.7795,-122.1061C272.7795,-122.1061 272.7795,-140.991 272.7795,-140.991"/>
<polygon fill="#000000" stroke="#000000" points="269.2795,-140.9909 272.7795,-150.991 276.2795,-140.991 269.2795,-140.9909"/>
</g>
<!-- SharedModule -->
<g id="node5" class="node">
<title>SharedModule</title>
<polygon fill="#8dd3c7" stroke="#000000" points="122.4231,-122 119.4231,-126 98.4231,-126 95.4231,-122 23.5769,-122 23.5769,-86 122.4231,-86 122.4231,-122"/>
<text text-anchor="middle" x="73" y="-99.8" font-family="Times,serif" font-size="14.00" fill="#000000">SharedModule</text>
</g>
<!-- SharedModule&#45;&gt;AuditListModule -->
<g id="edge4" class="edge">
<title>SharedModule&#45;&gt;AuditListModule</title>
<path fill="none" stroke="#000000" d="M73,-122.1061C73,-141.3391 73,-169 73,-169 73,-169 237.1952,-169 237.1952,-169"/>
<polygon fill="#000000" stroke="#000000" points="237.1952,-172.5001 247.1952,-169 237.1952,-165.5001 237.1952,-172.5001"/>
</g>
</g>
</svg>
